<?xml version="1.0" encoding="UTF-8"?>
<svg xmlns="http://www.w3.org/2000/svg" viewBox="0 0 500 500">
  <defs>
    <style>
      .cls-1 {
        fill: #7289a3;
      }

      .cls-1, .cls-2, .cls-3, .cls-4, .cls-5, .cls-6, .cls-7, .cls-8, .cls-9, .cls-10, .cls-11, .cls-12, .cls-13, .cls-14, .cls-15, .cls-16, .cls-17, .cls-18, .cls-19, .cls-20, .cls-21, .cls-22, .cls-23, .cls-24, .cls-25, .cls-26, .cls-27, .cls-28, .cls-29, .cls-30, .cls-31, .cls-32, .cls-33, .cls-34, .cls-35, .cls-36, .cls-37, .cls-38, .cls-39, .cls-40, .cls-41, .cls-42, .cls-43, .cls-44, .cls-45, .cls-46, .cls-47, .cls-48, .cls-49, .cls-50, .cls-51, .cls-52, .cls-53, .cls-54, .cls-55, .cls-56, .cls-57, .cls-58, .cls-59, .cls-60, .cls-61, .cls-62, .cls-63, .cls-64, .cls-65, .cls-66, .cls-67, .cls-68, .cls-69, .cls-70, .cls-71, .cls-72, .cls-73, .cls-74, .cls-75 {
        stroke-width: 0px;
      }

      .cls-2 {
        fill: #142134;
      }

      .cls-3 {
        fill: #f7b698;
      }

      .cls-4 {
        fill: #f1b094;
      }

      .cls-5 {
        fill: #fffffe;
      }

      .cls-6 {
        fill: #8b4233;
      }

      .cls-7 {
        fill: #e54542;
      }

      .cls-8 {
        fill: #752f29;
      }

      .cls-9 {
        fill: #808ea4;
      }

      .cls-10 {
        fill: #181225;
      }

      .cls-11 {
        fill: #e34a44;
      }

      .cls-12 {
        fill: #5c3f3f;
      }

      .cls-13 {
        fill: #597e60;
      }

      .cls-14 {
        fill: #f5aa78;
      }

      .cls-15 {
        fill: #361d26;
      }

      .cls-16 {
        fill: #372225;
      }

      .cls-17 {
        fill: #7388a1;
      }

      .cls-18 {
        fill: #9c3537;
      }

      .cls-19 {
        fill: #f7c4a2;
      }

      .cls-20 {
        fill: #f29058;
      }

      .cls-21 {
        fill: #e8e7ea;
      }

      .cls-22 {
        fill: #382931;
      }

      .cls-23 {
        fill: #293c50;
      }

      .cls-24 {
        fill: #ec5f5a;
      }

      .cls-25 {
        fill: #d9b09e;
      }

      .cls-26 {
        fill: #1d2d3e;
      }

      .cls-27 {
        fill: #2f1b20;
      }

      .cls-28 {
        fill: #273449;
      }

      .cls-29 {
        fill: #6f9aaf;
      }

      .cls-30 {
        fill: #374459;
      }

      .cls-31 {
        fill: #617592;
      }

      .cls-32 {
        fill: #9b4537;
      }

      .cls-33 {
        fill: #ee7267;
      }

      .cls-34 {
        fill: #eba17d;
      }

      .cls-35 {
        fill: #e4805b;
      }

      .cls-36 {
        fill: #4c5b7d;
      }

      .cls-37 {
        fill: #ee7161;
      }

      .cls-38 {
        fill: #36252b;
      }

      .cls-39 {
        fill: #e46358;
      }

      .cls-40 {
        fill: #b0c2d1;
      }

      .cls-76, .cls-77 {
        fill: none;
        stroke: #364361;
        stroke-miterlimit: 10;
      }

      .cls-41 {
        fill: #eb5b4f;
      }

      .cls-42 {
        fill: #d2c2c4;
      }

      .cls-43 {
        fill: #5a6d86;
      }

      .cls-44 {
        fill: #879473;
      }

      .cls-45 {
        fill: #6f9474;
      }

      .cls-46 {
        fill: #10121f;
      }

      .cls-47 {
        fill: #172536;
      }

      .cls-48 {
        fill: #101a2b;
      }

      .cls-49 {
        fill: #131b2a;
      }

      .cls-50 {
        fill: #141625;
      }

      .cls-51 {
        fill: #eb5c51;
      }

      .cls-52 {
        fill: #547a5e;
      }

      .cls-53 {
        fill: #f7b69a;
      }

      .cls-54 {
        fill: #281d23;
      }

      .cls-55 {
        fill: #171d28;
      }

      .cls-56 {
        fill: #567959;
      }

      .cls-57 {
        fill: #e8c2a1;
      }

      .cls-58 {
        fill: #f7edd9;
      }

      .cls-59 {
        fill: #fff;
      }

      .cls-60 {
        fill: #da5848;
      }

      .cls-61 {
        fill: #768ca4;
      }

      .cls-62 {
        fill: #c5c1c6;
      }

      .cls-63 {
        fill: #fcfeff;
      }

      .cls-64 {
        fill: #a39bcc;
      }

      .cls-65 {
        fill: #f7b79b;
      }

      .cls-66 {
        fill: #bdbdc0;
      }

      .cls-67 {
        fill: #9d4e3b;
      }

      .cls-68 {
        fill: #c7c6c8;
      }

      .cls-69 {
        fill: #ed6d5c;
      }

      .cls-70 {
        fill: #ee7265;
      }

      .cls-71 {
        fill: #321e20;
      }

      .cls-72 {
        fill: #9da2b0;
      }

      .cls-73 {
        fill: #142336;
      }

      .cls-77 {
        stroke-width: 2px;
      }

      .cls-74 {
        fill: #d09d8f;
      }

      .cls-75 {
        fill: #12101f;
      }
    </style>
  </defs>
  <g id="Sol">
    <path class="cls-57" d="M206.9,470.93c-51.75-.52-91.21-1.3-109.98-1.93-3.36-.11-4.75-.15-13.37-.48-13.26-.5-26.41-1.07-39.46-1.72-3.62-.18-8.59-.57-14.5-1.47-5.19-.79-5.86-1.17-5.86-1.47,0-.41,1.22-1.23,13.52-2.61,17.58-1.96,27.04-1.95,27.04-1.95,20.14.02,40.27-1.61,60.41-1.5,30.08.16-101.32.06,137.76-.39,60.95-.11,78.14.2,89.91.39,40.24.62,73.51,1.76,96.47,2.7,3.19.08,7.89.35,13.56,1.25,3.5.55,6.88,1.1,6.89,1.84,0,.58-2.01,1.43-11.61,2.56-18.57.87-37.31,1.63-56.2,2.28-41.1,1.42-81.51,2.27-121.2,2.61-.38.4-1.08,1.02-2.12,1.47-1.24.53-2.35.53-2.93.49-20.04.05-40.07.11-60.11.16-1.14-.05-2.6-.21-4.24-.65-1.64-.44-2.99-1.04-4-1.58Z"/>
  </g>
  <g id="Chaise">
    <path class="cls-6" d="M299.53,356.47h-12.48c6.56,34.7,13.13,69.41,19.69,104.11h6.63c-4.61-34.7-9.23-69.41-13.84-104.11Z"/>
    <path class="cls-6" d="M194.54,356.17h12.48c-6.56,34.7-13.13,69.41-19.69,104.11h-6.63c4.61-34.7,9.23-69.41,13.84-104.11Z"/>
    <path class="cls-51" d="M173.35,202.91c.44-3.5,1.71-8.79,5.91-12.11,4.1-3.24,9.12-3.13,10.98-3.1,10.95.18,54.98,0,115.42,0,.57-.04,8.27-.41,12.67,5.63,2.68,3.69,2.61,7.69,2.53,9.01-1.09,13-2.47,26.43-4.22,40.26-1.2,9.52-2.52,18.81-3.94,27.87,1.19,4.95,2.23,11.03,2.53,18.02.38,8.82-.54,16.39-1.69,22.24-1.29,5.13-2.78,10.49-4.5,16.05-1.63,5.24-3.33,10.21-5.07,14.92.47-.03,4.65-.2,7.32,3.1.67.83,2.5,3.42,1.69,6.47-.76,2.89-3.59,5.07-7.04,5.35-40.07-.09-80.14-.19-120.21-.28-.2-.12-4.47-2.64-4.5-6.76-.03-4.03,3.99-8.1,9.57-8.16-11.72-28.13-12.57-46.21-10.98-57.71.37-2.65,1.12-6.82,1.41-13.23.63-14.15-1.6-26.15-3.38-35.47-1.41-7.39-2.39-10.43-3.38-18.3-.73-5.79-1-10.59-1.13-13.79Z"/>
    <path class="cls-70" d="M181.77,346.88l130.87.26c-.32-.86-.92-2.15-2.12-3.25-2.12-1.95-4.84-2.17-5.84-2.25-4.52-.37-50.72-.49-113.87-.23-1.03.01-4.29.19-6.95,2.65-1.05.97-1.7,2.02-2.09,2.83Z"/>
  </g>
  <g id="Calque_8" data-name="Calque 8">
    <g id="Pot_gauche">
      <path class="cls-44" d="M44.6,261.71c.08-.32.25-.73.62-.93.4-.21.74-.03.87-.11.38-.24-.86-3.13-5.13-10.87-.49-.5-.69-.82-.6-.97.15-.25,1.12,0,2.92.76-1.31-2.14-2.63-4.29-3.95-6.44-.58-.95-1.17-1.89-1.75-2.84-.41-.43-.45-.57-.41-.62.13-.19,1.51.44,2.43,1.08.58.4,1.36,1,2.22,1.84-1.42-3.26-2.85-6.53-4.27-9.79-.24-.36-.51-.82-.38-.97.2-.23,1.2.33,1.57.54.94.53,2.87,1.91,6.27,6-.62-2.73-1.34-5.97-2.22-9.95-.25-1.14-.44-2.03-.11-2.22.78-.44,3.87,3.41,5.79,6.44.96,1.52,2.35,3.75,3.35,6.98,1.33,4.25,1.23,7.8,1.51,7.79.16,0,.18-1.08.49-3.46.55-4.22.95-4.37,1.08-4.38.3-.03.58.51,1.03,1.41.79,1.58,1.14,2.94,1.41,4,.56,2.23.84,3.35.87,3.52.32,1.97.25,3.45.11,6-.07,1.27-.15,1.33-.49,4.98-.09.97-.16,1.78-.21,2.31-4.34-.03-8.68-.05-13.01-.08Z"/>
      <path class="cls-52" d="M53.89,261.73c-4.68-10.57-6.74-14.29-7.69-15.37-1.02-1.17-1.85-2.51-2.95-3.61-.24-.24-.51-.53-.46-.61.08-.11.85.28,1.42.66,1.64,1.1,2.08,2.45,2.44,2.34.42-.13.16-2.04.1-2.49-.19-1.37-.59-3.3-1.52-5.59-.23-.57-.47-1.27-.3-1.37.25-.15,1.27,1.1,1.58,1.47,2.76,3.38,4.32,8.56,4.93,10.67,1.44,4.97,1.99,7.93,2.39,7.88.24-.03.27-1.15.3-2.13.08-2.27.26-5.57.71-9.86-.02-1.16.05-1.76.2-1.78.18-.03.49.75.91,2.34.18,1.73.3,3.82.25,6.2,0,.45-.06,1.35-.15,3.15-.15,2.85-.4,4.67-.56,5.62-.05.3-.11.63-.11.63-.13.74-.25,1.37-.34,1.84-.39,0-.78,0-1.17.01Z"/>
      <path class="cls-56" d="M50.1,261.71c.65,0,1.31,0,1.96-.01-2.64-4.68-4.52-8.06-5.31-9.65,0,0-.58-1.09-1.73-2.69-.83-1.16-1.08-1.26-1.17-1.22-.21.11.14,1.2.36,1.78.43,1.14.97,1.92,1.12,2.13.81,1.17,1.44,2.45,2.18,3.66.79,1.27,1.78,3.2,2.58,6.01Z"/>
      <path class="cls-25" d="M47.24,291.53c-.13,0-.25-.03-.36-.09-.49-.28-1.12-.71-1.72-1.35-.92-.98-1.37-2.02-1.59-2.67-.03-.08-.04-.15-.04-.24.04-6.86.08-13.72.11-20.58,0-.11.02-.21.07-.3.28-.6.6-1.46.74-2.52.07-.52.08-1.01.07-1.43s.34-.77.76-.76c7.2.07,14.41.14,21.61.22.41,0,.74.34.73.75-.16,9.42-.31,18.84-.47,28.25,0,.4-.34.73-.74.73h-19.19Z"/>
      <path class="cls-64" d="M43.65,270.08c.04-.87.07-1.73.11-2.6,1.17-.65,2.61-1.61,4.07-3.01,1.02-.99,1.82-1.97,2.42-2.83l8.27.05c3.03,2.96,6.06,5.91,9.09,8.87-7.99-.16-15.97-.32-23.96-.49Z"/>
      <path class="cls-64" d="M43.59,281.49c7.91.02,15.83.04,23.74.05v5.46c-7.91-.05-15.83-.11-23.74-.16v-5.35Z"/>
      <path class="cls-14" d="M57.59,261.65c.27-4.43.68-8.12,1.04-10.86.56-4.21,1.23-7.91,1.93-11.8.34-1.86.63-3.4.84-4.49.39-.04,1.22-.06,2.08.39.37.19.64.42.84.62.29-.77.77-1.83,1.57-2.98.72-1.02.93-1.02,1.01-1.01.69.1.85,2.66.96,4.55.08,1.44.13,3.51-.06,6.07.5-.85,1.11-1.76,1.85-2.7.34-.42.68-.82,1.01-1.18.64.21,1.52.57,2.42,1.24.57.42,1.01.86,1.35,1.24-1.39,4.09-2.77,8.2-4.16,12.3-.97,2.89-1.94,5.77-2.91,8.66-3.26-.01-6.52-.03-9.78-.04Z"/>
      <path class="cls-35" d="M59.93,261.67h3.1c.37-2.05.82-4.18,1.35-6.39.96-3.96,2.08-7.6,3.26-10.9.44-5.78.24-9.06.05-10.77-.07-.64-.25-1.97-.76-2.06-.53-.09-1.22,1.17-1.72,2.08-.33.61-.58,1.07-.86,1.92-.8,2.46-.47,4.08-.81,6.75-.2,1.54-.48,2.36-.84,3.76-.66,2.57-1.6,7.08-2.77,15.6Z"/>
    </g>
    <g id="Classeur">
      <path class="cls-47" d="M66.67,272.88c.03,6.36.07,12.72.1,19.07h59.28c.55-.34,1.39-.98,1.96-2.05.6-1.14.59-2.22.59-2.74-.02-2.3-.02-6.45-.1-11.84-.02-.5-.13-1.16-.59-1.66-.64-.7-1.65-.77-2.15-.78-1.97-.05-26.07-.06-59.08,0Z"/>
      <path class="cls-40" d="M96.77,277.19h15.13c.06,3.42.11,6.84.17,10.26-5.08.01-10.17.03-15.25.04-.01-3.44-.03-6.87-.04-10.31Z"/>
      <path class="cls-9" d="M114.35,277.19h5.94c.01,3.46.03,6.93.04,10.39-1.98-.03-3.96-.06-5.94-.08-.01-3.44-.03-6.87-.04-10.31Z"/>
    </g>
    <g id="Crayon">
      <path class="cls-20" d="M100.13,260.15c.78-.01,1.57-.03,2.35-.04v-27.67c-.14,0-1.2-.05-1.95.8-.61.68-.6,1.49-.6,1.67.07,8.41.13,16.82.2,25.23Z"/>
      <path class="cls-4" d="M99.98,239.33h2.48c0-2.31,0-4.6.01-6.89-.19,0-.96-.02-1.65.54-.8.65-.88,1.56-.89,1.72.01,1.55.03,3.09.04,4.64Z"/>
    </g>
    <g id="Crayon-2" data-name="Crayon">
      <path class="cls-20" d="M96.4,262.32c.78-.01,1.57-.03,2.35-.04v-27.67c-.14,0-1.2-.05-1.95.8-.61.68-.6,1.49-.6,1.67.07,8.41.13,16.82.2,25.23Z"/>
      <path class="cls-4" d="M96.24,241.5h2.48c0-2.31,0-4.6.01-6.89-.19,0-.96-.02-1.65.54-.8.65-.88,1.56-.89,1.72.01,1.55.03,3.09.04,4.64Z"/>
    </g>
    <g id="Crayon-3" data-name="Crayon">
      <path class="cls-20" d="M90.3,267.12c.75.21,1.51.43,2.26.64l7.99-26.49c-.13-.05-1.14-.39-2.1.2-.78.48-1.01,1.25-1.06,1.43-2.37,8.07-4.73,16.14-7.1,24.22Z"/>
      <path class="cls-4" d="M96.17,247.14l2.38.71c.67-2.2,1.33-4.39,2-6.59-.18-.06-.91-.3-1.73.04-.95.39-1.3,1.24-1.35,1.39-.43,1.48-.87,2.97-1.3,4.45Z"/>
    </g>
    <g id="Crayon-4" data-name="Crayon">
      <path class="cls-20" d="M91.96,265.79c.72-.31,1.44-.62,2.16-.94l-10.59-25.56c-.13.05-1.13.41-1.5,1.48-.3.86.01,1.61.09,1.78,3.28,7.75,6.56,15.49,9.84,23.24Z"/>
      <path class="cls-4" d="M83.85,246.62l2.29-.96c-.87-2.12-1.75-4.24-2.62-6.36-.18.07-.89.35-1.31,1.13-.49.9-.22,1.78-.17,1.93.6,1.42,1.21,2.84,1.81,4.27Z"/>
    </g>
    <g id="Pot_mid">
      <path class="cls-30" d="M86.25,260.01c.04,4.45.08,8.89.13,13.34h18.86l-.13-13.4c-6.29.02-12.58.04-18.86.06Z"/>
      <circle class="cls-74" cx="92.71" cy="263.7" r="1.99"/>
    </g>
    <path class="cls-45" d="M405.79,253.38c-1.54-4.4-3.7-7.05-5.42-8.68-4.2-3.96-13.97-9.51-16.84-10.42-.37-.12-.79-.3-.8-.53-.02-.54,2.15-1.02,2.76-1.16,1.98-.44,5.67-1.26,9.98.27,3.48,1.24,5.22,3.25,5.61,2.85.4-.41-1.27-2.62-2.67-4.54-5.36-7.31-4.85-7.51-7.57-10.87-1.16-1.43-2.83-3.39-4.99-5.61-.45-.29-.97-.69-.89-.98.15-.56,2.45-.39,2.85-.36,3.62.28,6.36,2.17,11.22,5.61,3.11,2.2,3.93,3.13,4.54,4.01.89,1.29,1.41,2.59,1.78,2.49.42-.12.26-2.01.18-2.85-.52-5.47-1.37-8.34-1.87-11.85-.41-2.89-.42-5.1-.45-8.82-.01-2.28.06-4.06.18-7.22.11-2.91.25-5.36.36-7.13-.03-1.3.49-2.26.98-2.32.52-.06,1.33.83,1.51,2.32.53,1.42,1.25,3.44,2.05,5.88.42,1.29,1.2,3.75,2.85,9.8,1.61,5.91,2.41,8.86,2.85,10.69,1.27,5.33,1.71,8.2,2.49,8.2.57,0,.98-1.53,1.34-2.85,1.28-4.74,2.76-9.42,4.01-14.16,1.12-4.28,2.16-6.89,2.95-8.57.37-.8.79-1.58.79-1.58.79-1.52,1.55-2.75,2.14-3.65.39-.78.71-.89.89-.89.92-.01,1.6,2.79,1.69,3.21.39,1.37.86,3.22,1.25,5.43.61,3.46.72,6.11.8,8.2.08,2.06.2,5.57-.27,10.07-.4,3.77-1,6.25-.71,6.32.25.07.87-1.68,1.78-4.01.64-1.64,2.7-6.85,4.99-11.31,1.45-2.82,2.65-5.13,4.9-7.75,2.51-2.92,4.52-4.15,5.88-4.81,1.26-.62,2.39-.96,3.21-1.16.75-.28,1.22-.31,1.43-.09.36.4-.17,1.62-1.6,3.65-1.43,3.91-2.59,7.3-3.47,9.98-2.91,8.8-2.06,7.45-3.92,12.65-1.5,4.19-2.8,7.17-2.14,7.57.36.22,1.07-.46,1.96-1.16,0,0,3.33-2.63,8.28-4.19,1.74-.55,4.75-1.12,9-.09.31.04.97.18,1.51.71.15.15.27.3.36.45-.34.19-.88.52-1.51.98-.85.62-1.41,1.16-1.6,1.34-1.97,1.86-4.82,3.86-7.84,6.77-1.38,1.34-2.67,2.88-5.26,5.97-5.36,6.41-6.49,8.33-6.86,10.78-.21,1.4-.13,2.58-.03,3.35-11.54.02-23.09.04-34.63.07Z"/>
    <path class="cls-64" d="M405.68,253.35c-.79,2.92-1.48,6.3-1.86,10.08-.8,8.03.11,14.9,1.24,19.9.28,1.15.87,2.97,2.21,4.87,1.45,2.05,3.12,3.26,4.16,3.89,7.96.03,15.92.06,23.89.09,1.02-.68,2.47-1.8,3.8-3.54,1.46-1.89,2.19-3.74,2.57-4.95,1.14-4.75,2.18-11.69,1.15-19.9-.51-4.05-1.41-7.59-2.39-10.53-11.59.03-23.18.06-34.77.09Z"/>
    <path class="cls-42" d="M403.83,263.71c13,.02,26,.04,39,.06.05.65.1,1.29.16,1.94-13.11-.01-26.21-.02-39.32-.03.05-.66.1-1.31.16-1.97Z"/>
    <path class="cls-42" d="M403.56,269.27c13.22.04,26.43.09,39.65.13.01.59.02,1.19.03,1.78-13.23.04-26.45.08-39.68.12v-2.03Z"/>
    <path class="cls-42" d="M403.83,275.41c13.06.04,26.13.08,39.19.13-.07.6-.15,1.21-.22,1.81h-38.75c-.07-.65-.15-1.29-.22-1.94Z"/>
    <path class="cls-42" d="M404.65,281.29c12.5.08,25,.17,37.5.25-.13.54-.25,1.08-.38,1.63-12.23.02-24.46.04-36.69.06-.15-.65-.29-1.29-.44-1.94Z"/>
    <path class="cls-29" d="M404.9,256.61c12.18.07,24.35.14,36.53.21-.18-.7-.37-1.41-.56-2.12-.13-.48-.26-.95-.4-1.42-11.6.01-23.2.02-34.8.04-.12.57-.24,1.17-.39,1.77-.13.52-.26,1.03-.39,1.52Z"/>
    <path class="cls-13" d="M416.64,253.3c-.49-.02-.98-.05-1.47-.07-.88-1.72-1.93-3.57-3.17-5.49-1.3-2.02-2.61-3.82-3.87-5.39-.97-2.77-2.27-5.81-4.03-8.96-5.02-9.02-11.54-14.95-16.33-18.53-.2-.15,8.61,4.81,15.8,14.73,3.44,4.75,5.58,9.23,6.91,12.53,1.35,2.06,2.71,4.34,4.03,6.84.78,1.49,1.49,2.94,2.14,4.34Z"/>
    <path class="cls-13" d="M410.1,221.69c-2.09-5.92-4.02-13.38-4.71-22.1-.26-3.26-.31-6.34-.23-9.19.28,4,.66,7.37.99,9.95.23,1.77.47,3.61.91,6.08.5,2.77.84,4.03,1.44,6.84.42,1.97,1,4.85,1.6,8.43Z"/>
    <path class="cls-13" d="M421.34,252.37c-.31-4.49-.31-8.28-.23-11.09.17-5.97.77-9.68,1.97-17.09,0,0,.64-3.72,2.2-7.06.36-.78.89-1.73,1.67-2.73.74-.95,1.49-1.67,2.13-2.2,0,0,1.59-1.9,1.6-1.9s1.59-1.9,1.6-1.9c-.12,9.32-1.53,21.33-6.53,34.25-1.36,3.52-2.86,6.76-4.41,9.72Z"/>
    <path class="cls-13" d="M425.37,253.25c2.51-5.36,4.15-9.3,5.24-12.04.51-1.3,1.52-3.9,2.51-3.8.5.05.85.79,1.06,1.44,2.12-9.64,5.57-20.74,11.24-32.43,1.79-3.68,3.65-7.13,5.54-10.33-3.7,8.2-7.31,18.09-9.87,29.55-1.04,4.65-1.8,9.09-2.35,13.29-1.61,3.01-3.52,6.2-5.77,9.49-1.17,1.71-2.35,3.32-3.52,4.83h-4.07Z"/>
    <path class="cls-13" d="M434.84,253.22c1.84,0,3.68-.02,5.52-.02-.06-.43-.13-1.09-.1-1.88.12-2.7,1.36-4.77,3.62-7.85,1.21-1.65,2.75-3.74,5.19-6.47,3.72-4.18,6.79-6.77,7.42-7.3.71-.6,1.71-1.4,2.24-1.83,1.99-1.61,3.65-2.91,4.78-3.78-.54-.1-1.46-.23-2.59-.12-.4.04-1.79.07-3.34.99-9.57,5.61-16.86,17.32-16.86,17.32-1.63,2.62-3.75,6.31-5.87,10.96Z"/>
  </g>
  <g id="Calque_9" data-name="Calque 9">
    <circle class="cls-41" cx="397.61" cy="150.04" r="21.41"/>
    <circle class="cls-59" cx="397.87" cy="157.86" r="2.53" transform="translate(178.32 525.31) rotate(-80.78)"/>
    <path class="cls-59" d="M397.53,154.33c-1.13-.05-1.87-3-2.29-4.67-.77-3.06-.79-5.72-.67-7.55.33-.31.95-.79,1.86-1.06.68-.2,1.23-.2,1.58-.19,1.2.03,2.18.4,2.86.75.47,3.69-.12,6.41-.67,8.09-.32.99-1.39,4.68-2.67,4.63Z"/>
    <circle class="cls-41" cx="96.41" cy="153.96" r="21.41"/>
    <path class="cls-59" d="M87.15,166.43c-.97-.33-3.3-1.27-4.1-3.4-.71-1.9.15-3.8.7-4.95,3.15-6.62,8.88-15.44,10.21-17.49.59-1.34,1.96-2.12,3.33-1.93,1.17.16,2.16,1,2.55,2.17l10.52,18.88c.07.19.94,2.53-.54,4.64-1.34,1.92-3.52,2.07-3.79,2.09h-18.88Z"/>
    <circle class="cls-24" cx="96.67" cy="161.78" r="2.53" transform="translate(-78.5 231.29) rotate(-80.78)"/>
    <path class="cls-24" d="M96.33,158.25c-1.13-.05-1.87-3-2.29-4.67-.77-3.06-.79-5.72-.67-7.55.33-.31.95-.79,1.86-1.06.68-.2,1.23-.2,1.58-.19,1.2.03,2.18.4,2.86.75.47,3.69-.12,6.41-.67,8.09-.32.99-1.39,4.68-2.67,4.63Z"/>
    <path class="cls-58" d="M159.7,111.49c1.61-.33,4.22-1.13,6.38-3.26,2.71-2.68,3.66-6.14,3.69-8.65.14-16.35.28-32.69.43-49.04-.22-1.21-1.41-6.9-6.8-10.77-4.36-3.13-9.26-3.12-11.2-3.12-10.79.02-42.16-.16-84.62,0-1.51.25-6.18,1.23-9.92,5.39-2.7,3-3.63,6.21-3.97,7.8-.05,17.67-.09,35.34-.14,53.01.41,1.48,1.67,5.34,5.39,8.5,3.25,2.77,6.68,3.57,8.22,3.83h84.47l9.5,2.95c1.37.3,1.77.13,1.88-.07.36-.64-1.87-2.03-2.93-5.08-.21-.62-.32-1.15-.38-1.48Z"/>
    <path class="cls-58" d="M330.2,111.39c-1.61-.33-4.22-1.13-6.38-3.26-2.71-2.68-3.66-6.14-3.69-8.65-.14-16.35-.28-32.69-.43-49.04.22-1.21,1.41-6.9,6.8-10.77,4.36-3.13,9.26-3.12,11.2-3.12,10.79.02,42.16-.16,84.62,0,1.51.25,6.18,1.23,9.92,5.39,2.7,3,3.63,6.21,3.97,7.8.05,17.67.09,35.34.14,53.01-.41,1.48-1.67,5.34-5.39,8.5-3.25,2.77-6.68,3.57-8.22,3.83h-84.47c-3.17.98-6.34,1.97-9.5,2.95-1.37.3-1.77.13-1.88-.07-.36-.64,1.87-2.03,2.93-5.08.21-.62.32-1.15.38-1.48Z"/>
    <circle class="cls-73" cx="100.4" cy="95.92" r="4.76"/>
    <circle class="cls-73" cx="119.58" cy="95.8" r="4.76"/>
    <path class="cls-73" d="M95.69,55.65c.51-2.25,2.55-3.82,4.81-3.74,2.15.08,4.01,1.64,4.47,3.79-.06,9.2-.13,18.39-.19,27.59-.88,1.65-2.58,2.7-4.42,2.72-1.98.02-3.81-1.14-4.66-2.96v-27.39Z"/>
    <path class="cls-73" d="M114.84,55.74c.51-2.25,2.55-3.82,4.81-3.74,2.15.08,4.01,1.64,4.47,3.79-.06,9.2-.13,18.39-.19,27.59-.88,1.65-2.58,2.7-4.42,2.72-1.98.02-3.81-1.14-4.66-2.96v-27.39Z"/>
    <g>
      <path class="cls-28" d="M359.88,64c.48-.06,3.28-.45,5.15-2.99,1.65-2.25,1.45-4.65,1.39-5.22,1.76-.02,3.53-.05,5.29-.07-.09.41-.83,3.9,1.39,6.2.61.63,1.3,1.02,1.88,1.25,1.14.74,2.28,1.49,3.41,2.23,1.76-1.37,3.53-2.74,5.29-4.11,1.21,1.09,2.41,2.18,3.62,3.27-.86.73-2.79,2.59-3.06,5.36-.05.47-.04.91,0,1.32-.07,2.53.92,3.85,1.32,4.32.62.71,1.34,1.1,2.79,1.88,1.29.7,2.42,1.17,3.2,1.46-.19,1.81-.37,3.62-.56,5.43-1.97.07-3.95.14-5.92.21-.33.77-.72,1.59-1.18,2.44-.44.81-.89,1.56-1.32,2.23.59,1.02,1.21,2.27,1.74,3.76.43,1.19.71,2.3.91,3.27-1.37.93-2.74,1.86-4.11,2.79-.77-.43-1.83-1.15-2.79-2.3-.45-.54-.79-1.06-1.04-1.53-.38-.08-2.99-.63-4.67.98-.25.24-.53.58-.77,1.04-.36.84-.73,1.82-1.04,2.93-.29,1.03-.49,2-.63,2.86h-4.81c-.18-.75-.35-1.57-.49-2.44-.24-1.52-.33-2.93-.35-4.18-1.67-.72-3.34-1.44-5.01-2.16-.69.71-1.61,1.53-2.79,2.3-.77.5-1.5.89-2.16,1.18-.66-.37-1.52-.94-2.37-1.81-.65-.67-1.13-1.33-1.46-1.88.59-1.1,1.26-2.24,2.02-3.41.39-.61.79-1.19,1.18-1.74-.57-1.12-1.15-2.43-1.67-3.9-.38-1.08-.68-2.11-.91-3.06-.89-.28-1.89-.55-2.99-.77-1.08-.21-2.09-.34-2.99-.42-.02-1.69-.05-3.39-.07-5.08,2.09-.44,4.18-.88,6.27-1.32.77-1.79,1.53-3.58,2.3-5.36l-2.72-5.43c1.35-1.14,2.69-2.28,4.04-3.41,1.56,1.3,3.11,2.6,4.67,3.9Z"/>
      <circle class="cls-58" cx="368.48" cy="79.08" r="10.06"/>
    </g>
    <g>
      <path class="cls-28" d="M396.82,61.9c.18-.08,1.24-.59,1.66-1.82.37-1.09,0-2.02-.1-2.23.69-.23,1.39-.46,2.08-.69.01.17.16,1.64,1.32,2.27.32.17.64.24.9.26.54.15,1.08.3,1.62.45.52-.76,1.05-1.52,1.57-2.28.61.28,1.22.56,1.84.84-.25.39-.78,1.37-.54,2.5.04.19.1.36.17.52.29,1.01.84,1.4,1.06,1.54.33.2.67.27,1.33.39.6.11,1.1.16,1.45.18.15.74.31,1.47.46,2.21-.77.27-1.54.55-2.31.82-.04.34-.09.72-.16,1.11-.07.38-.15.72-.24,1.04.36.33.76.75,1.16,1.26.32.42.57.82.77,1.18-.42.54-.85,1.07-1.27,1.61-.36-.07-.86-.22-1.39-.56-.24-.16-.44-.32-.6-.47-.16.01-1.26.12-1.72.97-.07.13-.14.29-.17.51-.04.38-.06.81-.05,1.28.01.44.05.85.11,1.2l-1.89.6c-.17-.27-.33-.57-.5-.9-.28-.57-.5-1.11-.66-1.6-.75-.07-1.5-.15-2.25-.22-.18.37-.44.8-.81,1.25-.24.29-.48.54-.7.74-.31-.06-.72-.18-1.16-.42-.34-.18-.61-.38-.81-.56.1-.51.22-1.04.37-1.6.08-.29.16-.57.25-.83-.37-.37-.76-.81-1.15-1.33-.29-.38-.53-.75-.74-1.09-.38,0-.81.02-1.28.07-.45.05-.87.13-1.23.21-.22-.67-.44-1.33-.66-2,.77-.43,1.54-.87,2.31-1.3.08-.8.16-1.6.24-2.4l-1.75-1.8c.39-.62.78-1.23,1.17-1.85.78.32,1.55.64,2.33.95Z"/>
      <circle class="cls-58" cx="402.09" cy="66.77" r="4.16"/>
    </g>
  </g>
  <g id="Personnage_bas">
    <g id="pied_gauche">
      <path class="cls-53" d="M271.41,426.17h-19.23c.17,8.08.34,16.15.51,24.23-.49.52-1.91,2.16-2.05,4.61-.06,1.13.17,2.07.38,2.69,1.14-.95,5.25-4.16,11.41-4.23,5.78-.07,9.79,2.67,11.02,3.59.19-.82.48-2.65-.26-4.74-.46-1.32-1.17-2.26-1.67-2.82-.04-7.78-.09-15.55-.13-23.33Z"/>
      <path class="cls-46" d="M275.26,457.57c.03-.77.16-6.11-4.1-10-3.56-3.24-7.85-3.34-9.74-3.2-1.05.07-4.35.36-7.31,2.82-4.94,4.11-4.54,10.66-4.49,11.41-.24.41-.55,1.02-.79,1.8-.43,1.4-.34,2.46-.3,4.05.03,1.06.04,2.56-.03,4.41.02.14.17.9.89,1.39.6.41,1.21.37,1.39.36,8.2,0,16.39.02,24.59.03.19-.04.58-.16.92-.5.57-.57.57-1.31.56-1.45v-6.78c-.02-.75-.16-1.95-.83-3.2-.24-.45-.51-.83-.77-1.14Z"/>
      <path class="cls-53" d="M273.42,456.55c-.1-.82-.74-5.21-4.68-8.11-1.02-.75-3.73-2.49-7.46-2.22-1.02.07-5.15.52-7.81,4.14-2.09,2.84-2.01,5.89-1.95,6.81,1.24-1.03,4.74-3.64,9.94-4.05,6.29-.5,10.78,2.57,11.95,3.43Z"/>
      <path class="cls-23" d="M275.33,467.29c-8.54-.02-17.08-.05-25.61-.07-.06-.5-.73-6.33,3.74-10.27,3.49-3.07,7.67-2.84,8.49-2.78.33-.05,7.01-.85,11.05,4.26,2.94,3.73,2.45,8.02,2.34,8.86Z"/>
    </g>
    <g id="pied_gauche-2" data-name="pied_gauche">
      <path class="cls-53" d="M218.33,426.22h19.23c-.17,8.08-.34,16.15-.51,24.23.49.52,1.91,2.16,2.05,4.61.06,1.13-.17,2.07-.38,2.69-1.14-.95-5.25-4.16-11.41-4.23-5.78-.07-9.79,2.67-11.02,3.59-.19-.82-.48-2.65.26-4.74.46-1.32,1.17-2.26,1.67-2.82.04-7.78.09-15.55.13-23.33Z"/>
      <path class="cls-46" d="M214.49,457.63c-.03-.77-.16-6.11,4.1-10,3.56-3.24,7.85-3.34,9.74-3.2,1.05.07,4.35.36,7.31,2.82,4.94,4.11,4.54,10.66,4.49,11.41.24.41.55,1.02.79,1.8.43,1.4.34,2.46.3,4.05-.03,1.06-.04,2.56.03,4.41-.02.14-.17.9-.89,1.39-.6.41-1.21.37-1.39.36-8.2,0-16.39.02-24.59.03-.19-.04-.58-.16-.92-.5-.57-.57-.57-1.31-.56-1.45v-6.78c.02-.75.16-1.95.83-3.2.24-.45.51-.83.77-1.14Z"/>
      <path class="cls-53" d="M216.32,456.61c.1-.82.74-5.21,4.68-8.11,1.02-.75,3.73-2.49,7.46-2.22,1.02.07,5.15.52,7.81,4.14,2.09,2.84,2.01,5.89,1.95,6.81-1.24-1.03-4.74-3.64-9.94-4.05-6.29-.5-10.78,2.57-11.95,3.43Z"/>
      <path class="cls-23" d="M214.41,467.35c8.54-.02,17.08-.05,25.61-.07.06-.5.73-6.33-3.74-10.27-3.49-3.07-7.67-2.84-8.49-2.78-.33-.05-7.01-.85-11.05,4.26-2.94,3.73-2.45,8.02-2.34,8.86Z"/>
    </g>
    <rect class="cls-49" x="205.08" y="298.56" width="86.52" height="42.53"/>
    <path class="cls-55" d="M274.59,350.67c1.01-1.17,2.25-2.84,3.31-5.02,1-2.05,1.54-3.94,1.84-5.39v-6.25h-5.02l-.12,16.66Z"/>
    <path class="cls-55" d="M242.73,355.15c1.01-1.17,2.25-2.84,3.31-5.02,1-2.05,1.54-3.94,1.84-5.39v-6.25h-5.02l-.12,16.66Z"/>
    <g id="jambe_gauche">
      <path class="cls-26" d="M277.2,415c.18-28.99.35-57.99.53-86.98-.05-1.11-.5-8.76-6.85-13.44-3.89-2.87-7.97-3.13-9.23-3.16-1.69-.05-7.04-.2-11.07,3.95-4.05,4.18-3.76,9.61-3.69,10.54.3,22.58.99,45.6,2.11,69.06.32,6.72.67,13.39,1.05,20.03h27.15Z"/>
      <path class="cls-31" d="M276.54,414.97h-26.19c-.79,0-1.44.65-1.43,1.44l.07,8.07c0,.79.65,1.42,1.43,1.42,8.71-.03,17.41-.06,26.12-.09.79,0,1.42-.64,1.42-1.43v-7.98c0-.79-.64-1.43-1.43-1.43Z"/>
      <path class="cls-61" d="M276.09,417.43v3.35c-8.37.07-16.75.13-25.12.2l-.1-3.55c8.41,0,16.81,0,25.22,0Z"/>
    </g>
    <g id="jambe_gauche-2" data-name="jambe_gauche">
      <path class="cls-26" d="M213.88,415.13c-.18-28.99-.35-57.99-.53-86.98.05-1.11.5-8.76,6.85-13.44,3.89-2.87,7.97-3.13,9.23-3.16,1.69-.05,7.04-.2,11.07,3.95,4.05,4.18,3.76,9.61,3.69,10.54-.3,22.58-.99,45.6-2.11,69.06-.32,6.72-.67,13.39-1.05,20.03h-27.15Z"/>
      <path class="cls-31" d="M214.55,415.09h26.19c.79,0,1.44.65,1.43,1.44l-.07,8.07c0,.79-.65,1.42-1.43,1.42-8.71-.03-17.41-.06-26.12-.09-.79,0-1.42-.64-1.42-1.43v-7.98c0-.79.64-1.43,1.43-1.43Z"/>
      <path class="cls-61" d="M214.99,417.56v3.35l25.12.2.1-3.55h-25.22Z"/>
    </g>
    <g>
      <path class="cls-17" d="M193.25,300.67c4.5.06,9,.12,13.5.19-.12,13.54-.25,27.07-.37,40.61-4.45,0-8.89,0-13.34-.01.07-13.59.14-27.19.22-40.78Z"/>
      <path class="cls-43" d="M193.31,301.04c4.46-.04,8.91-.08,13.37-.12-.02,3.38-.04,6.77-.06,10.15-4.47-.09-8.94-.19-13.41-.28.03-3.25.06-6.5.1-9.75Z"/>
    </g>
    <g>
      <path class="cls-17" d="M300.52,300.8c-4.5.06-9,.12-13.5.19.12,13.54.25,27.07.37,40.61,4.45,0,8.89,0,13.34-.01-.07-13.59-.14-27.19-.22-40.78Z"/>
      <path class="cls-43" d="M300.46,301.17c-4.46-.04-8.91-.08-13.37-.12.02,3.38.04,6.77.06,10.15,4.47-.09,8.94-.19,13.41-.28-.03-3.25-.06-6.5-.1-9.75Z"/>
    </g>
  </g>
  <g id="Table">
    <g id="pieds_droit">
      <path class="cls-2" d="M395.55,300.56c-1.05,26.59-2.21,53.17-3.47,79.74-1.26,26.59-2.62,53.17-4.08,79.74h5.51c4.89-53.09,9.79-106.19,14.68-159.28-4.21-.07-8.43-.14-12.64-.2Z"/>
      <path class="cls-2" d="M443.42,300.57c1.05,26.59,2.21,53.17,3.47,79.74,1.26,26.59,2.62,53.17,4.08,79.74h-5.51c-4.89-53.09-9.79-106.19-14.68-159.28,4.21-.07,8.43-.14,12.64-.2Z"/>
      <path class="cls-32" d="M395.55,300.56c-.17,4.1-.34,8.2-.51,12.3,1.85.25,3.86.44,6.02.55,2.15.1,4.16.11,6.02.04l1.14-12.72c-4.22-.06-8.45-.11-12.67-.17Z"/>
      <path class="cls-32" d="M443.41,300.56c.17,4.11.34,8.22.5,12.32-1.81.26-3.8.47-5.94.57-2.17.11-4.19.1-6.03.02-.39-4.24-.79-8.48-1.18-12.72,4.22-.07,8.43-.13,12.65-.2Z"/>
    </g>
    <g id="pieds_gauche">
      <path class="cls-2" d="M50.01,301.01c-1.05,26.59-2.21,53.17-3.47,79.74-1.26,26.59-2.62,53.17-4.08,79.74h5.51c4.89-53.09,9.79-106.19,14.68-159.28-4.21-.07-8.43-.14-12.64-.2Z"/>
      <path class="cls-2" d="M97.88,301.02c1.05,26.59,2.21,53.17,3.47,79.74,1.26,26.59,2.62,53.17,4.08,79.74h-5.51c-4.89-53.09-9.79-106.19-14.68-159.28,4.21-.07,8.43-.14,12.64-.2Z"/>
      <path class="cls-32" d="M50.01,301.01c-.17,4.1-.34,8.2-.51,12.3,1.85.25,3.86.44,6.02.55,2.15.1,4.16.11,6.02.04l1.14-12.72c-4.22-.06-8.45-.11-12.67-.17Z"/>
      <path class="cls-32" d="M97.88,301.01c.17,4.11.34,8.22.5,12.32-1.81.26-3.8.47-5.94.57-2.17.11-4.19.1-6.03.02-.39-4.24-.79-8.48-1.18-12.72,4.22-.07,8.43-.13,12.65-.2Z"/>
    </g>
    <g id="table_dessus">
      <path class="cls-34" d="M37.94,291.48c139.56.13,279.12.26,418.68.39,2.22.76,3.64,2.87,3.51,5.07-.12,1.86-1.33,3.53-3.12,4.29H38.33c-2.54-.42-4.36-2.63-4.29-5.07.07-2.19,1.66-4.14,3.9-4.68Z"/>
      <path class="cls-67" d="M35.22,299.4c.26.33.72.81,1.42,1.21.62.36,1.2.51,1.59.58,2.09,0,31.46,0,33.6,0,32.03,0,64.06-.01,96.09-.01,25.34,0,50.68.02,76.02.03,44.33.01,66.75.02,79.04,0,8.84-.01,26.2-.05,50.9-.05,3.16,0,10.13,0,19.36,0,8.52,0,10.21.02,13.44.02,0,0,0,0,0,0,2.01.1,3.36,0,3.72,0,.99.04,8.63.02,23.92,0,2.51,0,6.19-.01,10.69-.03,4.02,0,8.04.02,12.05.03.32-.15.7-.37,1.1-.67.37-.28.66-.56.89-.81-2.25.06-4.49.13-6.74.19-8.71.24-14.6.15-21.93.13-4.83,0-11.7,0-20.11.05-3.08,0-6.16-.02-9.24-.03h-8.56c-22.97-.05-45.94-.11-68.92-.16-13.56.07-34.22.17-59.41.19-41.69.04-71.73-.19-96.62-.26-45.4-.13-92.21-.28-132.29-.44Z"/>
      <path class="cls-19" d="M34.83,293.68c.23-.35.63-.87,1.27-1.34.72-.53,1.41-.76,1.84-.86,16.71.03,32.55.05,33.6.05,10.98.01,67.76.07,96.07.1,25.33.02,50.65.05,75.98.07,12.98.01,76.8.07,79.12.07.94,0,14.6.01,28.18.02,14.35.01,21.53.02,22.65.02,12.74.04,15.2.08,19.44.02,1.32-.02,4.22-.03,8.21-.02,4.15,0,6.99.03,8.93.05,8.25.07,8.91-.02,23.66,0,5.32,0,6.7.02,11.02.02,5.02,0,9.14,0,11.85,0,.34.12.78.32,1.24.64.38.26.67.54.89.77-1.57-.03-3.96-.08-6.88-.13-6.28-.1-9.37-.16-21.93-.13-4.83,0-11.7,0-20.11-.05-3.08,0-6.16.02-9.24.03h-8.56c-22.97.05-45.94.11-68.92.16-13.56-.07-34.22-.17-59.41-.19-41.69-.04-71.73.19-96.62.26-45.4.13-92.21.28-132.29.44Z"/>
    </g>
  </g>
  <g id="Personnage_haut">
    <rect class="cls-48" x="208.4" y="116.33" width="76.1" height="67.42"/>
    <path class="cls-3" d="M234.39,147.78c.16,3.55.1,7.35-.3,11.38-.07.72-.15,1.43-.24,2.13-.17.29-.59.92-1.4,1.34-.51.26-.97.34-1.28.37-.06,1.02,0,2.35.49,3.77,1.99,5.79,9.57,8.71,15.52,8.64,6.1-.07,13.63-3.32,15.27-9,.35-1.21.37-2.32.3-3.16-.69-.17-1.76-.56-2.37-1.52-.44-.68-.47-1.38-.49-1.7-.07-1.77-.14-6.61-.12-13.14-8.46-.16-16.91-.32-25.37-.49v1.4Z"/>
    <g id="cheveux">
      <path class="cls-22" d="M301.48,182.62c.34.88.71,1.79,1.1,2.71.27.62.53,1.22.8,1.81.58-3.59.98-8.05.7-13.16-.2-3.68-.7-6.95-1.31-9.74-1.3-4.48-2.86-7.83-4.02-10.04-1.18-2.26-4.5-8.18-6.73-12.05-.39-.67-.97-1.67-1.51-3.11-.72-1.92-.7-2.82-.9-2.81-.46.01-1.57,4.57.3,8.34.25.5.53.94,1.1,1.81,1.5,2.29,2.84,3.79,3.21,4.22,2.48,2.86,4.13,7,5.02,9.24,1.82,4.58,2.4,8.32,2.71,10.45.42,2.86.74,6.71.4,11.25-.3.37-.6.74-.9,1.1Z"/>
      <path class="cls-38" d="M191.14,187.68c.28-.55.57-1.11.86-1.66.32-.62.64-1.22.97-1.83-.64-4.02-1.25-11.48,1.7-19.93,1.59-4.56,3.76-8.09,5.61-10.6l3.21-10.53c-2.04,4.47-3.98,7.94-5.4,10.32-1.74,2.92-2.23,3.42-3.28,5.54-2.22,4.49-3.02,8.33-3.42,10.32-.98,4.87-.93,8.68-.89,10.94.06,3.02.35,5.56.65,7.43Z"/>
      <path class="cls-12" d="M194.85,180.48c-.22-3.82-.17-9.49,1.47-16.06.92-3.68,1.97-6.16,2.68-7.98,2.72-6.91,4.11-12.7,6.18-24.41,2.26-12.76,3.92-24.18,5.12-33.29.28-2.94,1.9-16.73,13.7-26.17,1.3-1.04,7.34-5.87,16.71-7.4,16.02-2.62,27.78,6.62,29.21,7.78,8.9,7.23,11.74,16.95,12.5,19.52.92,3.12,1.62,7,2.04,9.31,1,5.53,1.24,8.97,1.79,13.9.26,2.36,1.15,10.23,2.3,16.46.9,4.9,2.54,11.85,5.74,20.16,1.18,1.9,2.64,4.6,3.83,8.04,1.15,3.34,1.55,5.98,1.91,8.42.46,3.09.85,7.31.64,12.37-5.73-1.1-16.53-4.09-20.28-12.37-.73-1.61-1.08-3.33-1.79-6.76-1.21-5.91-1.22-9.8-1.53-17.48-.31-7.71-.48-11.56-.77-14.41-.7-6.92-2.02-12.65-3.19-16.84-7.65-2.83-12.56-6.48-15.27-8.83-2.84-2.46-5.25-5.2-6.04-6.1-2.35-2.69-4.15-5.17-5.46-7.13-.54-.48-3.99-3.45-8.83-2.82-4.08.53-7.57,3.41-9.08,7.43-.57,3.69-1.83,8.7-4.78,13.96-1.18,2.11-2.45,3.92-3.67,5.46-.25-.3-.65-.72-1.24-1.09-.12-.08-1.32-.82-2.23-.77-1.9.1-3.7,3.69-3.69,6.82.01,2.5,1.18,4.49,1.68,5.35.6,1.02,1.24,1.78,1.72,2.29.62,7.04.74,15.61-.53,25.22-.66,5.04-1.61,9.65-2.68,13.78-2.86.65-8.51,2.38-13.46,7.29-2.23,2.21-3.73,4.48-4.73,6.34Z"/>
      <path class="cls-71" d="M273.36,113.25c2.16.33,3.62-.09,4.53-.52.24-.11,1.87-.89,1.81-1.53-.09-.87-2.62-1.2-4.31-1.53,0,0-2.31-.45-10.57-4.17-2.68-1.21-8.12-4.33-14.75-13.22-1.1-1.41-2.94-3.38-5.7-5.01-1.64-.97-3.18-1.57-4.45-1.95.4-.66,1.45-2.2,3.48-3.2,2.37-1.16,4.57-.83,5.29-.7,1.06.06,2.82.29,4.73,1.25,1.4.71,2.41,1.57,3.06,2.23,1.97,1.6,4.11,3.58,6.26,5.98,1.32,1.48,2.48,2.93,3.48,4.31,1.57,1.79,3.54,4.01,5.84,6.54,1.39,1.53,2.44,2.66,4.17,3.76,1.99,1.26,4.47,2.22,4.73,1.81.29-.46-2.35-2.38-5.56-5.29-3.85-3.48-5.16-5.31-9.32-9.88-2.83-3.1-7.03-7.52-12.66-12.8-9.85-2.47-13.3-1.41-14.47.28-.46.67-.86,1.88-1.11,1.81-.33-.09-.31-2.41.83-4.31.42-.7.95-1.26,1.81-1.95.98-.78,3.08-2.41,6.26-3.2,4.41-1.09,8.13.13,9.6.7-2.2-1.78-5.63-3.93-9.74-3.76-4.64.2-8.15,3.28-8.49,2.78-.27-.4,1.89-2.64,4.59-4.17,2.9-1.65,5.7-2.1,7.51-2.23-1.11-.23-8.02-1.54-12.66,2.78-.98.91-1.69,1.92-2.23,2.92-1.35-.24-3.3-.41-5.56,0-1.13.21-2.11.51-2.92.83,1.52-.2,4.24-.3,6.96,1.11.58.3,1.09.63,1.53.97-.99-.14-4.5-.5-8.07,1.67-3.72,2.26-4.98,5.76-5.29,6.68,4.15-4.43,9.3-5.54,11.96-3.62.47.34,1.63,1.33,2.09,3.76-1.44-.12-3.63-.08-5.84.97-2.87,1.37-3.85,3.52-7.23,7.23-1.2,1.32-3.05,3.21-5.56,5.29,1.18-.39,3.18-1.15,5.29-2.64,5.16-3.64,6.26-8.26,9.74-8.49.81-.05,2.14.1,3.9,1.53-1.68.43-4.18,1.32-6.4,3.34-3.19,2.9-3.89,6.32-5.56,10.99-1.17,3.26-3.06,7.76-6.14,12.98.3.16.67.38,1.04.7.28.24.51.49.68.7.71-.76,1.63-1.84,2.57-3.25.83-1.26,1.32-2.29,1.97-3.54.8-1.55,1.38-2.92,1.78-4,.16-.43.94-2.53,1.62-5.54.31-1.39.21-1.2.38-1.81.22-.77.95-3.22,3.19-5.37.63-.6,2.43-2.3,5.32-2.92,4.2-.9,7.55,1.13,8.32,1.62,3.29,4.56,6.43,8.05,8.9,10.55,1.06,1.08,2.03,2.06,3.46,3.3,3.37,2.93,5.98,4.4,11.18,7.35,1.36.77,2.77,1.53,4.75,1.84Z"/>
      <path class="cls-27" d="M276.23,129.89c.63-.46,1.37-1.08,2.1-1.89.56-.63,1-1.24,1.34-1.78-.68,8.51-.45,19.77,3.11,32.26,1.07,3.76,2.32,7.21,3.65,10.33-2.16-.36-4.33-.73-6.49-1.09-.44-1.51-1.04-3.79-1.54-6.62-.74-4.09-.9-7.21-.99-8.98-.3-5.62-.71-13.12-1.17-22.24Z"/>
      <path class="cls-54" d="M286.42,139.34c.21,1.85.67,4.66,1.81,7.93.93,2.66,1.57,3.52,2.81,6.63,1.54,3.84,2.31,6.91,2.81,8.94.73,2.96,1.5,6.84,1.91,11.45l2.51,3.41c-.19-6.03-1.19-10.83-2.11-14.16-1.13-4.12-2.59-7.65-3.21-9.14-1.4-3.35-2.4-5.15-4.52-10.14-.89-2.1-1.58-3.83-2.01-4.92Z"/>
      <path class="cls-15" d="M194.9,180.37c.45-.89,1.03-1.9,1.77-2.95.8-1.14,1.62-2.08,2.36-2.85-.22-2.41-.26-5.64.44-9.36.99-5.23,3.01-9.18,4.54-11.64-2.3,2.84-5.69,7.79-7.63,14.74-1.34,4.78-1.56,9-1.48,12.07Z"/>
      <path class="cls-16" d="M205.33,169.44c1.11-.53,2.39-1.07,3.84-1.55,1.38-.46,2.67-.79,3.84-1.03,1.67-6.41,3.14-14.33,3.54-23.46.24-5.54.05-10.62-.37-15.12-.71-.91-1.43-1.82-2.14-2.73-.74,12.33-2.07,19.28-3.22,23.42-1.04,3.75-2.05,7.51-3.1,11.26-.22.8-.8,2.87-1.51,5.67-.38,1.49-.67,2.72-.87,3.55Z"/>
    </g>
    <path class="cls-18" d="M234.36,147.09c.03.93.06,1.85.1,2.78.78.93,1.98,2.19,3.66,3.39,1.91,1.37,5.36,3.84,9.91,3.54,4.11-.26,6.99-2.65,8.54-3.93,1.48-1.23,2.51-2.47,3.18-3.38v-2.03c-1.04.8-2.57,1.9-4.54,2.99-3.25,1.81-5.22,2.91-7.86,2.95-2.41.03-4.17-.84-6.8-2.15-2.81-1.39-4.86-3-6.18-4.17Z"/>
    <g id="visage">
      <path class="cls-65" d="M219.9,115.03c2.67-3.39,4.07-6.43,4.87-8.57,1.14-3.08,1.48-3.75,2.33-7.62.28-1.26,1.25-4.91,4.65-7.72,2.14-1.76,4.34-2.46,5.61-2.75.83-.16,3.86-.63,6.88,1.16,1.97,1.17,3.03,2.77,3.49,3.6,2.32,3.47,6.15,8.34,12.06,12.8,4.84,3.66,9.5,5.86,13.01,7.19,2.47-1.11,5.29-.74,7.19.95,2.21,1.96,2.13,4.78,2.12,5.18-.14,1.44-.63,4.43-2.75,7.41-1.53,2.14-3.3,3.43-4.44,4.13-.57.14-1.28.28-2.12.32-.82.04-1.54-.02-2.12-.11-.95,3.23-3.52,10.27-10.26,16.08-3.8,3.28-7.65,5.05-10.37,6.03-.71.2-1.7.39-2.88.4-1.21,0-2.22-.2-2.94-.4-3.05-1.07-9.86-3.93-15.23-10.9-3.3-4.27-4.84-8.51-5.61-11.32-.87.16-2.11.26-3.49-.11-.35-.09-.66-.2-.95-.32-.93-.6-5.24-3.52-6.24-8.99-.46-2.51-.05-4.63.32-5.92.88-1.55,2.52-2.42,4.13-2.22,1.64.21,2.57,1.45,2.75,1.69Z"/>
      <path class="cls-10" d="M259.25,105.44c-2.19-.41-3.99-.99-4.55-1.17-1.82-.6-2.88-1.12-3.17-.74-.26.34.21,1.21.63,1.69.38.43.81.64,1.06.74.74.25,1.52.5,2.33.74.8.24,1.58.45,2.33.63,1,.07,2.44.15,4.16.19-1.07-.74-2-1.45-2.78-2.09Z"/>
      <path class="cls-10" d="M224.34,107.73c.05.4,3.06.36,5.61.32,2.1-.03,3.82-.13,4.97-.21.75-.19,1.53-.4,2.33-.63.81-.24,1.59-.49,2.33-.74.25-.1.68-.31,1.06-.74.43-.48.89-1.36.63-1.69-.29-.38-1.35.14-3.17.74-.73.24-3.59,1.16-6.66,1.48-1.66.17-2.01.03-3.6.32-1.46.27-3.53.83-3.49,1.16Z"/>
      <g id="oeil_gauche">
        <path class="cls-50" d="M225.08,113.89c1.11-.61,2.41-1.24,3.9-1.81,1.18-.45,2.29-.79,3.31-1.05.68-.1,2.74-.32,4.54.93,2.2,1.53,2.77,4.4,2.44,4.6-.31.18-1.22-1.96-3.64-3.02-1.39-.61-2.75-.64-3.79-.54-.97.42-1.94.85-2.91,1.27-.2.2-.64.59-1.3.71-.92.16-1.9-.27-2.54-1.1Z"/>
        <path class="cls-63" d="M227.83,115.03c.16,5.17,4.17,8.26,6.98,7.72,2.12-.4,4-2.94,4.34-6.14-.1-.17-2.39-3.8-6.45-3.7-2.67.06-4.43,1.69-4.87,2.12Z"/>
        <circle class="cls-75" cx="233.7" cy="117.84" r="3.54"/>
      </g>
      <g id="oeil_gauche-2" data-name="oeil_gauche">
        <path class="cls-50" d="M269.19,114.07c-1.11-.61-2.41-1.24-3.9-1.81-1.18-.45-2.29-.79-3.31-1.05-.68-.1-2.74-.32-4.54.93-2.2,1.53-2.77,4.4-2.44,4.6.31.18,1.22-1.96,3.64-3.02,1.39-.61,2.75-.64,3.79-.54.97.42,1.94.85,2.91,1.27.2.2.64.59,1.3.71.92.16,1.9-.27,2.54-1.1Z"/>
        <path class="cls-63" d="M266.44,115.22c-.16,5.17-4.17,8.26-6.98,7.72-2.12-.4-4-2.94-4.34-6.14.1-.17,2.39-3.8,6.45-3.7,2.67.06,4.43,1.69,4.87,2.12Z"/>
        <circle class="cls-75" cx="260.57" cy="118.02" r="3.54"/>
      </g>
      <path class="cls-11" d="M244.13,129.37c.35-.35,1.24.71,2.72.7,1.43,0,2.31-1.01,2.78-.58.26.24.18.75.18.79-.02.09-.09.45-.61.85-1,.77-2.29.66-2.49.64-.46-.04-1.69-.16-2.31-1.11-.24-.37-.51-1.04-.26-1.29Z"/>
      <path class="cls-33" d="M243.26,139.64c.13.39.59,1.57,1.82,2.3.29.17.99.61,1.96.56.34-.02,1.41-.12,2.34-.97.67-.6.94-1.29,1.05-1.64-.86-.38-2.41-.91-4.37-.82-1.15.06-2.11.31-2.8.56Z"/>
      <path class="cls-7" d="M239.74,141.51c-.3-.34,1.1-2.55,3.36-3.68.73-.37,1.41-.55,1.93-.64.54-.05,1.13-.08,1.75-.09.81,0,1.55.04,2.22.12.9.35,2.2,1,3.36,2.22,1.06,1.11,1.78,2.45,1.58,2.63-.2.18-1.17-.95-3.22-1.84-.69-.3-1.29-.48-1.7-.58-1.18-.27-2.86-.48-4.74-.06-2.79.62-4.28,2.25-4.56,1.93Z"/>
      <path class="cls-60" d="M218.82,113.97c.21.15.44.34.68.58.16.16.3.32.41.47.13,2.24.42,4.83,1.02,7.65.49,2.3,1.09,4.36,1.72,6.16-.77-.53-3.58-2.59-4.66-6.55-1.14-4.17.44-7.53.84-8.33Z"/>
      <path class="cls-37" d="M271.5,128.29c1.83-2.36,2.68-4.57,3.1-5.99.7-2.35.75-4.37.8-5.9.05-1.62-.05-2.99-.16-3.99-.81.24-1.61.47-2.42.71.47,2.55.81,6.22,0,10.46-.34,1.78-.82,3.36-1.33,4.71Z"/>
    </g>
    <g id="main-droite">
      <path class="cls-53" d="M341.31,221.06c-.47,1.12-.94,2.36-1.37,3.69-.56,1.73-.97,3.37-1.27,4.86-2.12,0-6.22-.35-10.24-2.96-1.42-.92-2.53-1.93-3.38-2.85,2.21-4.69,4.27-8.39,5.81-10.98,2.11-3.57,3.01-4.71,3.48-5.28,2.82-3.41,5.73-5.28,8.23-6.86,2.79-1.76,7.03-4.04,12.67-5.7,3.2-.85,5.65.09,6.02,1.37.33,1.13-.98,2.46-1.27,2.74-.71.56-1.69,1.23-2.96,1.79-1.39.62-2.65.91-3.59,1.06,1.07.27,2.69.56,4.65.42,1.09-.07,2.1-.27,3.38-.63,3.63-1.05,6.98-2.84,8.97-4.01.09-.05,1.26-.64,2.43,0,.99.54,1.23,1.53,1.27,1.69.72-.21,1.55-.51,2.43-.95,1.41-.7,2.49-1.52,3.27-2.22.56.11,1.13.21,1.69.32.44.18,1.28.6,1.48,1.37.19.74-.29,1.45-.53,1.79-4.23,6.03-9.92,10.98-9.92,10.98-.88.77-2.41,2.1-4.33,3.8-1,.61-2.39,1.31-4.12,1.79-1.05.29-2.02.45-2.85.53-1.25.08-3.16.2-5.49.32-1.65.08-2.62.12-4.43.21-5.28.28-6.24.47-7.28,1.06-1.31.73-2.18,1.77-2.74,2.64Z"/>
      <path class="cls-39" d="M381.13,198.61c.27-.35.65-.87.54-1-.14-.16-.95.35-1.23.53-2.74,1.72-7.37,6.55-8.1,7.3-1.23,1.26-3.17,2.98-6.07,4.62-1.59.54-2.93-.11-3.14-.91-.2-.75.62-1.56.69-1.63,7.55-4.85,11.19-7.53,10.91-8.04-.05-.09-.23-.11-.54-.06l-12.63,7.77c-.1.18-.19.38-.27.6-.35.98-.26,1.89-.15,2.45-1.16.17-2.07.08-2.69-.03-1.44-.26-2.51-.72-3.66-1.27-1.51-.73-1.54-.94-2.76-1.55-.82-.41-2.44-1.22-4.53-1.47-2.29-.27-4.1.26-5.54.68-.72.21-.13.09-3.84,1.56-.88.35-1.77.69-1.72.94.03.17.48.22.94.27.76.09,1.14.13,1.9,0,1.92-.33,5.97-.12,6.62-.09,1.43.07,2.96.38,6.01,1,2.77.56,3.04.74,4.99,1.03,2.11.31,3.83.4,4.92.42,1.65.04,3.1-.03,4.26-.12,1.03-.47,2.55-1.25,4.2-2.51.52-.4.89-.71,1.42-1.18,3.75-3.28,5.66-4.95,7.07-6.47.61-.66,1.46-1.62,2.42-2.83Z"/>
      <path class="cls-69" d="M361.08,195.98c-1.64.9-3.49,1.82-5.53,2.69-2.01.86-3.93,1.56-5.69,2.12.11.16.28.38.53.58.54.43,1.18.57,1.9.6,2.33.09,4.5-.98,5.27-1.36.78-.39,1.4-.79,1.82-1.1.37-.27.56-.41.77-.62.25-.25,1.35-1.34,1.1-2.47-.04-.2-.12-.35-.17-.45Z"/>
    </g>
    <g id="main-gauche">
      <path class="cls-53" d="M153.62,220.98c.47,1.12.94,2.36,1.37,3.69.56,1.73.97,3.37,1.27,4.86,2.12,0,6.22-.35,10.24-2.96,1.42-.92,2.53-1.93,3.38-2.85-2.21-4.69-4.27-8.39-5.81-10.98-2.11-3.57-3.01-4.71-3.48-5.28-2.82-3.41-5.73-5.28-8.23-6.86-2.79-1.76-7.03-4.04-12.67-5.7-3.2-.85-5.65.09-6.02,1.37-.33,1.13.98,2.46,1.27,2.74.71.56,1.69,1.23,2.96,1.79,1.39.62,2.65.91,3.59,1.06-1.07.27-2.69.56-4.65.42-1.09-.07-2.1-.27-3.38-.63-3.63-1.05-6.98-2.84-8.97-4.01-.09-.05-1.26-.64-2.43,0-.99.54-1.23,1.53-1.27,1.69-.72-.21-1.55-.51-2.43-.95-1.41-.7-2.49-1.52-3.27-2.22-.56.11-1.13.21-1.69.32-.44.18-1.28.6-1.48,1.37-.19.74.29,1.45.53,1.79,4.23,6.03,9.92,10.98,9.92,10.98.88.77,2.41,2.1,4.33,3.8,1,.61,2.39,1.31,4.12,1.79,1.05.29,2.02.45,2.85.53,1.25.08,3.16.2,5.49.32,1.65.08,2.62.12,4.43.21,5.28.28,6.24.47,7.28,1.06,1.31.73,2.18,1.77,2.74,2.64Z"/>
      <path class="cls-39" d="M113.8,198.53c-.27-.35-.65-.87-.54-1,.14-.16.95.35,1.23.53,2.74,1.72,7.37,6.55,8.1,7.3,1.23,1.26,3.17,2.98,6.07,4.62,1.59.54,2.93-.11,3.14-.91.2-.75-.62-1.56-.69-1.63-7.55-4.85-11.19-7.53-10.91-8.04.05-.09.23-.11.54-.06,4.21,2.59,8.42,5.18,12.63,7.77.1.18.19.38.27.6.35.98.26,1.89.15,2.45,1.16.17,2.07.08,2.69-.03,1.44-.26,2.51-.72,3.66-1.27,1.51-.73,1.54-.94,2.76-1.55.82-.41,2.44-1.22,4.53-1.47,2.29-.27,4.1.26,5.54.68.72.21.13.09,3.84,1.56.88.35,1.77.69,1.72.94-.03.17-.48.22-.94.27-.76.09-1.14.13-1.9,0-1.92-.33-5.97-.12-6.62-.09-1.43.07-2.96.38-6.01,1-2.77.56-3.04.74-4.99,1.03-2.11.31-3.83.4-4.92.42-1.65.04-3.1-.03-4.26-.12-1.03-.47-2.55-1.25-4.2-2.51-.52-.4-.89-.71-1.42-1.18-3.75-3.28-5.66-4.95-7.07-6.47-.61-.66-1.46-1.62-2.42-2.83Z"/>
      <path class="cls-69" d="M133.85,195.9c1.64.9,3.49,1.82,5.53,2.69,2.01.86,3.93,1.56,5.69,2.12-.11.16-.28.38-.53.58-.54.43-1.18.57-1.9.6-2.33.09-4.5-.98-5.27-1.36-.78-.39-1.4-.79-1.82-1.1-.37-.27-.56-.41-.77-.62-.25-.25-1.35-1.34-1.1-2.47.04-.2.12-.35.17-.45Z"/>
    </g>
    <g id="vetement">
      <path class="cls-59" d="M224.71,164.57l5.98-1.36c.21,1.41.73,3.49,2.1,5.56,4.62,6.98,14.18,6.65,15.1,6.6,4.96-.25,12.05-2.63,14.47-8.39.65-1.54.81-2.97.84-3.98,2.41.49,4.82.98,7.23,1.47.31,18.35.63,36.69.94,55.04-15.59-.14-31.17-.28-46.76-.42.03-18.17.07-36.34.1-54.52Z"/>
      <path class="cls-68" d="M224.77,170.04c1.45,2.14,4.9,6.6,11.05,9.41,1.6.73,5.76,2.43,11.34,2.38,1.29-.01,4.76-.13,8.79-1.54,7.95-2.78,12.54-8.63,14.36-11.27-.02-1.04-.04-2.08-.05-3.13-1.09,1.79-2.84,4.25-5.5,6.64-1.99,1.79-8.23,7.4-17.75,7.5-3.22.03-9.99-.53-15.9-5.51-3.58-3.02-5.44-6.47-6.34-8.5v4.02Z"/>
      <g id="veste_gauche">
        <path class="cls-1" d="M156.12,229.38c2.26-.09,6.45-.59,10.51-3.35,1.39-.94,2.49-1.97,3.35-2.91.67.72,1.34,1.46,2.01,2.24,2.11,2.43,3.96,4.83,5.59,7.16,4.32-14.39,8.65-28.78,12.97-43.16,1.03-2.69,6.54-16.6,16.1-20.58,1.8-.75,6.51-2.3,12.08-3.35,2.49-.47,4.58-.74,6.04-.89.07,31.46.15,62.92.22,94.38-10.66,7.53-21.32,15.06-31.98,22.59-.38.52-2.79,3.75-6.93,4.03-2.02.14-3.62-.48-4.47-.89-1.91-.58-5.24-1.9-8.28-4.92-1.58-1.57-2.65-3.18-3.35-4.47-2.96-6.93-5.89-14.24-8.72-21.92-2.2-5.96-4.2-11.78-6.04-17.44,0-.98.05-2.11.22-3.35.17-1.18.41-2.23.67-3.13Z"/>
        <path class="cls-36" d="M174.55,228.08c.47-.22,5.79,9.63,10.06,19.23,2.02,4.54,3.57,8.49,4.7,11.52-.49-4.15-.62-9.41.45-15.32.36-2.02.83-3.88,1.34-5.59,2.62,4.15,12.16,20.08,5.93,30.19-.49.79-1.23,1.68-1.23,1.68-1.79,2.2-3.03,3.72-4.92,4.03-1.37.22-3.4-.14-4.36-1.68-.66-1.06-.53-2.21-.45-2.68.77-1.35,1.83-3.69,1.9-6.71.02-1.05-.08-1.99-.22-2.8-11.18-25.36-13.56-31.7-13.2-31.87Z"/>
        <path class="cls-36" d="M180.51,284.22c.8.43,4.08,2.06,7.74.85,1.26-.42,2.23-1.06,2.9-1.62-1.42.28-3.01.52-4.74.67-2.17.18-4.15.19-5.9.1Z"/>
        <line class="cls-77" x1="204.8" y1="192.27" x2="204.62" y2="217.13"/>
        <line class="cls-77" x1="218.81" y1="165.61" x2="218.72" y2="216.52"/>
        <path class="cls-76" d="M224.23,164.69c.03,17.22.06,34.44.1,51.66"/>
        <path class="cls-8" d="M156.1,229.39l-.53,2.3c2.46.08,6.81-.14,11.47-2.43,2.23-1.1,3.96-2.39,5.24-3.52-.37-.46-.76-.92-1.18-1.4-.38-.43-.76-.84-1.13-1.23-.69.76-1.52,1.54-2.49,2.29-4.2,3.2-8.8,3.86-11.39,3.99Z"/>
      </g>
      <g id="veste_gauche-2" data-name="veste_gauche">
        <path class="cls-1" d="M338.95,229.36c-2.26-.09-6.45-.59-10.51-3.35-1.39-.94-2.49-1.97-3.35-2.91-.67.72-1.34,1.46-2.01,2.24-2.11,2.43-3.96,4.83-5.59,7.16-4.32-14.39-8.65-28.78-12.97-43.16-1.03-2.69-6.54-16.6-16.1-20.58-1.8-.75-6.51-2.3-12.08-3.35-2.49-.47-4.58-.74-6.04-.89-.07,31.46-.15,62.92-.22,94.38,10.66,7.53,21.32,15.06,31.98,22.59.38.52,2.79,3.75,6.93,4.03,2.02.14,3.62-.48,4.47-.89,1.91-.58,5.24-1.9,8.28-4.92,1.58-1.57,2.65-3.18,3.35-4.47,2.96-6.93,5.89-14.24,8.72-21.92,2.2-5.96,4.2-11.78,6.04-17.44,0-.98-.05-2.11-.22-3.35-.17-1.18-.41-2.23-.67-3.13Z"/>
        <path class="cls-36" d="M320.51,228.06c-.47-.22-5.79,9.63-10.06,19.23-2.02,4.54-3.57,8.49-4.7,11.52.49-4.15.62-9.41-.45-15.32-.36-2.02-.83-3.88-1.34-5.59-2.62,4.15-12.16,20.08-5.93,30.19.49.79,1.23,1.68,1.23,1.68,1.79,2.2,3.03,3.72,4.92,4.03,1.37.22,3.4-.14,4.36-1.68.66-1.06.53-2.21.45-2.68-.77-1.35-1.83-3.69-1.9-6.71-.02-1.05.08-1.99.22-2.8,11.18-25.36,13.56-31.7,13.2-31.87Z"/>
        <path class="cls-36" d="M314.56,284.21c-.8.43-4.08,2.06-7.74.85-1.26-.42-2.23-1.06-2.9-1.62,1.42.28,3.01.52,4.74.67,2.17.18,4.15.19,5.9.1Z"/>
        <line class="cls-77" x1="290.26" y1="192.25" x2="290.44" y2="217.12"/>
        <line class="cls-77" x1="276.26" y1="165.59" x2="276.34" y2="216.5"/>
        <path class="cls-76" d="M270.84,164.67c-.03,17.22-.06,34.44-.1,51.66"/>
        <path class="cls-8" d="M338.96,229.38l.53,2.3c-2.46.08-6.81-.14-11.47-2.43-2.23-1.1-3.96-2.39-5.24-3.52.37-.46.76-.92,1.18-1.4.38-.43.76-.84,1.13-1.23.69.76,1.52,1.54,2.49,2.29,4.2,3.2,8.8,3.86,11.39,3.99Z"/>
      </g>
    </g>
  </g>
  <g id="PC">
    <path class="cls-72" d="M191.51,287.5c-.47,1.2-.32,2.48.42,3.29.43.46.94.66,1.27.74,35.21.04,70.42.07,105.63.11.26-.18.76-.58,1.06-1.27.55-1.27-.01-2.47-.11-2.65-36.09-.07-72.19-.14-108.28-.21Z"/>
    <path class="cls-5" d="M195.12,216.76h100.42c.39.05,2.79.36,4.38,2.54,1.48,2.04,1.2,4.23,1.13,4.66v64.69c-36.63-.09-73.26-.19-109.89-.28l-.28-66.95c.18-.59.5-1.42,1.13-2.26,1.08-1.45,2.43-2.12,3.11-2.4Z"/>
    <path class="cls-62" d="M300.91,221.45l.19,1.25c.01.25.02.53,0,.83,0,.13-.02.26-.03.39,0,21.54-.01,43.07-.02,64.61-2.87,0-5.75,0-8.62,0,.43-22.46.85-44.91,1.28-67.37,2.4.1,4.81.2,7.21.31Z"/>
    <path class="cls-21" d="M193.28,224.39c-.04-.68,0-1.66.56-2.54,0,0,.99-2.13,3.95-2.12,32.63.09,65.25.19,97.88.28.18.02.99.11,1.62.81.58.65.63,1.39.64,1.59v66.1c-35.17-.05-70.34-.09-105.51-.14.28-21.33.56-42.66.85-63.98Z"/>
    <circle class="cls-59" cx="242.93" cy="256.24" r="8.97"/>
    <path class="cls-66" d="M267.15,288.37c1.73-.85,4.04-2.15,6.5-4.1.93-.74,2.45-1.88,4.24-3.95,2.51-2.92,5.26-6.54,7.91-10.88,2.91-4.78,5-9.28,6.5-13.14,1.29-3.32,1.85-5.82,2.97-10.31,1.29-5.17,2.13-9.55,2.68-12.72,0,18.41,0,36.82,0,55.24-1.76,0-3.52,0-5.28,0-8.53-.02-17.03-.06-25.51-.13Z"/>
  </g>
</svg>