<?xml version="1.0" encoding="UTF-8"?>
<svg id="Calque_2" data-name="Calque 2" xmlns="http://www.w3.org/2000/svg" viewBox="0 0 248 214">
  <defs>
    <style>
      .cls-1 {
        fill: #1d3d91;
        stroke-width: 0px;
      }
    </style>
  </defs>
  <path class="cls-1" d="M141.76,157.62c7.42-4.19,21.2-13.54,23.81-28.54.18-1.03.31-2.1.38-3.21-8.72,4.8-19.04,3.85-25.51-2.08-6.47-5.92-6.45-14.39-6.43-15.87.02-1.26.42-9.85,7.75-15.87,6.43-5.28,13.71-4.89,15.26-4.77,2.08.1,9.13.69,15.17,6.24,7.98,7.33,7.76,17.4,7.7,18.9-.03,1.2-.13,3.24-.52,5.72-2.92,18.69-17.03,30.72-19.65,32.88-3.11,2.57-6.57,5.18-10.39,7.75-1.6,1.07-3.17,2.08-4.72,3.02-.94-1.39-1.89-2.77-2.83-4.16Z"/>
  <path class="cls-1" d="M87.71,157.62c7.42-4.19,21.2-13.54,23.81-28.54.18-1.03.31-2.1.38-3.21-8.72,4.8-19.04,3.85-25.51-2.08-6.47-5.92-6.45-14.39-6.43-15.87.02-1.26.42-9.85,7.75-15.87,6.43-5.28,13.71-4.89,15.26-4.77,2.08.1,9.13.69,15.17,6.24,7.98,7.33,7.76,17.4,7.7,18.9-.03,1.2-.13,3.24-.52,5.72-2.92,18.69-17.03,30.72-19.65,32.88-3.11,2.57-6.57,5.18-10.39,7.75-1.6,1.07-3.17,2.08-4.72,3.02-.94-1.39-1.89-2.77-2.83-4.16Z"/>
</svg>