<?xml version="1.0" encoding="UTF-8"?>
<svg xmlns="http://www.w3.org/2000/svg" viewBox="0 0 500 500">
  <defs>
    <style>
      .cls-1 {
        fill: #e88c64;
      }

      .cls-1, .cls-2, .cls-3, .cls-4, .cls-5, .cls-6, .cls-7, .cls-8, .cls-9, .cls-10, .cls-11, .cls-12, .cls-13, .cls-14, .cls-15, .cls-16, .cls-17, .cls-18, .cls-19, .cls-20, .cls-21, .cls-22, .cls-23, .cls-24, .cls-25, .cls-26, .cls-27, .cls-28, .cls-29, .cls-30, .cls-31, .cls-32, .cls-33 {
        stroke-width: 0px;
      }

      .cls-2 {
        fill: #ceeaf5;
      }

      .cls-3 {
        fill: #edc338;
      }

      .cls-4 {
        fill: #e38c60;
      }

      .cls-5 {
        fill: #25a6d5;
      }

      .cls-6 {
        fill: #9dd2c1;
      }

      .cls-7 {
        fill: #b03621;
      }

      .cls-8 {
        fill: #6e2d87;
      }

      .cls-9 {
        fill: #e18f64;
      }

      .cls-10 {
        fill: #dc411f;
      }

      .cls-11 {
        fill: #042b2e;
      }

      .cls-12 {
        fill: #d17855;
      }

      .cls-13 {
        fill: #0571a1;
      }

      .cls-14 {
        fill: #46b48c;
      }

      .cls-15 {
        fill: #b5351a;
      }

      .cls-16 {
        fill: #f08065;
      }

      .cls-17 {
        fill: #f4a076;
      }

      .cls-18 {
        fill: #f8c8a3;
      }

      .cls-19 {
        fill: #dc8f68;
      }

      .cls-20 {
        fill: #f4a173;
      }

      .cls-21 {
        fill: #ffda41;
      }

      .cls-22 {
        fill: #b7e0e8;
      }

      .cls-23 {
        fill: #fff;
      }

      .cls-24 {
        fill: #fde3cd;
      }

      .cls-25 {
        fill: #f49e71;
      }

      .cls-26 {
        fill: #76cae1;
      }

      .cls-27 {
        fill: #c1ae24;
      }

      .cls-28 {
        fill: #e28557;
      }

      .cls-29 {
        fill: #def1f7;
      }

      .cls-30 {
        fill: #27a8d3;
      }

      .cls-31 {
        fill: #062d35;
      }

      .cls-32 {
        fill: #ef7d5b;
      }

      .cls-33 {
        fill: #fde891;
      }
    </style>
  </defs>
  <g id="Calque_4" data-name="Calque 4">
    <path class="cls-29" d="M96.92,322.94c2.29-.84,2.25-9.71-.35-17.39-2.73-8.07-6.33-9.05-8.08-17.29-.56-2.62,0-1.58-.85-9.64-.85-7.99-1.31-12.07-2.91-16.23-.96-2.49-2.65-6.02-5.81-9.85-.14-1.61-.19-3.99.43-6.73.72-3.2,1.65-3.84,2.55-6.8.33-1.08,1.6-5.61.5-10.7-.89-4.1-2.39-4.23-3.19-8.65-.3-1.65-.82-4.52.07-7.37,1.27-4.05,4.35-4.72,8.29-8.43,7-6.6,8.75-15.3,9.21-17.57.53-2.64,1.05-6.89.14-12.26,1.45-1.82,3.72-4.56,6.73-7.72,3.74-3.93,4.07-3.75,5.74-5.88,2.75-3.52,2.37-4.7,6.38-11.91,1.58-2.84,2.56-4.59,4.18-6.8,3.17-4.31,5.55-5.94,7.58-8.13,2.59-2.79,5.52-7.48,6.59-15.69,1.16-1.57,3.09-3.69,6.02-4.89,2.55-1.04,4.74-.94,6.02-.92,0,0,8.69.13,17.15-3.26,3.08-1.23,7.69-3.92,12.05-10.56,2.39-1.28,5.8-2.58,8.86-1.35,1.85.75,2.2,1.88,3.83,3.26,3.96,3.37,10.92,4.35,15.73,2.2,4.47-2,4.12-5.37,9.57-7.51,2.71-1.07,5.03-1.12,6.59-1.13,7.23-.09,11.81,3.26,16.06,5.08,4.5,1.92,11.6,3.39,22.49.52,1.98.27,4.85.87,8.01,2.34,3.48,1.62,3.6,2.57,7.68,4.7,4,2.09,6.6,3.44,10.18,3.52,2.1.04,3.34-.38,5.67.28,1.09.31,3.08.9,4.46,2.62.93,1.16,1.25,2.4,1.56,5.1.72,6.22-.12,6.79.57,9.21.93,3.29,3.63,6.17,6.87,7.58,5.24,2.28,10.12-.06,10.84-.43,1.84-.52,4.49-1.13,7.72-1.35,2.91-.2,4.8-.33,6.8.21,1.94.52,4.07,1.69,10.13,9.5,5.36,6.89,5.28,8.01,7.51,9.28,2.52,1.43,6.67,2.31,13.82-.35-.04-2.09.23-5.02,1.91-7.77,1.86-3.03,4.14-3.77,6.05-5.29,6.16-4.92,6.47-17.83,2.27-26.83-2.93-6.3-7.72-9.93-10.58-11.72-2.77-.52-6.91-1.67-10.96-4.54-6.1-4.32-8-9.7-10.2-12.85-3.68-5.26-12.51-10.48-35.91-8.69-1.45.05-3.54-.09-5.67-1.13-2.06-1.01-3.25-2.43-3.78-3.02,0,0-3-3.4-10.58-7.56-6.78-3.72-17.41,1.15-23.43,4.54-1.26-.03-3.05-.23-4.91-1.13-2.33-1.12-3.61-2.77-4.16-3.4-4.27-4.89-13.72-4.91-14.74-4.91-9.83-.02-16.42,6.54-17.76,7.94-4.62-2.27-26.35-12.58-35.91-5.29-1.72,1.31-6.27,5.65-10.2,9.83-2.63,2.78-4.69,5.18-6.05,6.8-1.65-.72-4.14-1.79-7.18-3.02-7.16-2.9-10.79-4.35-13.23-4.54-7.41-.57-13.13,3.29-14.36,4.16-4.06,2.87-6.19,6.39-7.18,8.31-.84,3.72-3.13,11.32-9.83,17.76-2.77,2.66-5.59,4.46-7.94,5.67-1.21.31-9.77,2.63-13.98,11.34-3.83,7.93-1.24,15.33-.76,16.63,2.11,4.4,3.94,9.92,1.51,13.23-1.84,2.51-4.44,1.45-7.94,4.16-4.87,3.78-6.21,10.81-5.67,15.87.44,4.18,2.19,7.3,3.4,9.07-.84,2.83-2.54,7.23-6.05,11.72-3.06,3.91-6.36,6.43-8.69,7.94-2.81,7.72-2.21,13.12-1.13,16.63,1.81,5.91,5.35,7.77,4.91,12.47-.47,5.06-4.87,6.19-6.8,10.96-1.52,3.75-1.66,10.11,6.05,21.17-.84,2.93-1.73,7.07-1.89,12.09-.07,2.37-.18,6.7,1.13,12.09,1.38,5.68,3.18,13.09,9.07,16.63,3.11,1.87,4.94,1.2,6.43,3.4,2.02,3-.62,5.3.76,10.58,1.13,4.34,4.07,7.17,6.05,9.07,2.28,2.19,3.54,3.39,4.54,3.02Z"/>
  </g>
  <g id="Calque_3" data-name="Calque 3">
    <path class="cls-22" d="M98.43,322.18c2.95,1.2,9.61-4.54,9.45-9.83-.01-.44-.11-.89-.15-1.09-.6-3.03-2.29-4.39-3.86-6.71-1.49-2.19-.62-1.93-2.83-6.17-2.04-3.89-2.76-4.09-3.35-6.07-.9-2.98-.07-5.19.38-7.75,1.17-6.68-.79-12.47-1.49-14.53-2.82-8.34-8.34-9.67-8.34-16.65,0-.43.3-2.06.9-5.31,1.92-10.43,2.56-10.31,2.48-12.97-.21-6.66-4.37-7.42-3.26-12.12.57-2.42,2.27-4.4,5.67-8.36,2-2.33,2.67-2.74,4.04-4.25.85-.95,6.88-7.78,7.94-17.08.59-5.16-.92-6.15.5-10.42,1.23-3.71,3.47-6.28,4.61-7.44,3.86-3.93,5.74-2.52,9.85-6.45,2.08-1.99,3.42-4.18,6.09-8.57.85-1.39.73-4.11,2.69-5.31.79-.49,1.6-.6,1.91-.64,2.24-.29,4.04.97,4.96,1.49,2.68,1.49,5.67.96,9.43.28,5.61-1,11.37-4.7,14.76-9.8,2.4-3.6,2.8-6.68,5.22-7.06.98-.16,1.15.32,5.46,2.06,3.53,1.42,5.7,2.03,6.31,2.2,2.23.61,3.34.91,4.25.92,3.37.04,4.52-1.98,9.78-4.32,3.19-1.43,4.79-2.14,6.59-2.06,3.15.14,3.81,1.96,9.21,4.32,3,1.31,4.75,2.08,7.23,2.2.75.04,6.02.22,10.2-3.26,2.77-2.3,2.69-4.23,5.46-5.31,2.3-.9,4.53-.41,5.39-.21,3.87.9,3.81,3.25,7.16,4.18,1.64.45,4.29-.1,9.59-1.2,4.27-.89,4.91-1.31,6.05-.76,1.96.95,3.99,3.34,4.98,5.43.44.93.75,1.9,1.77,2.55.86.55,1.48.4,2.48,1.06.9.59,1.24,1.26,1.63,1.77,1.89,2.47,6.73,3.73,9.43,2.41.76-.37,1.45-1.08,2.54-.97.67.07,1.02.39,1.71.76,1.46.78,2.47.73,3.47.99,3.29.85,5.5,4.76,6,5.65.75,1.34,1.47,2.79,3.08,4.25.28.25.62.47,1.07.66,1.75.75,3.63.5,4.54.38,2.08-.28,2.61-.97,5.29-1.51.62-.12,2.28-.46,3.4-.38,3.64.26,5.08,5.06,7.94,8.31,6.13,7,17.86,5.85,19.65,5.67,2.68-.26,9.94-1.09,15.87-7.18,6.44-6.61,6.77-14.74,6.8-16.63-6.75,2.02-10.78.97-13.23-.38-4.15-2.29-4.48-5.85-11.72-13.61-3.16-3.38-4.73-5.07-6.43-5.67-3.42-1.21-5.77.12-17.39,2.27-5,.92-6.16.97-7.56.38-4.78-2.02-6.25-8.93-6.43-9.83-1.04-5.22,1.01-7.55-1.13-11.34-.36-.64-1.51-2.61-3.78-3.78-3.26-1.68-5.4.04-9.83-.38-3.73-.36-6.32-1.97-9.83-4.16-6.37-3.97-5.71-6.35-9.45-7.56-5.08-1.65-6.8,2.57-15.12,3.02-6.7.36-12.48-2.01-15.87-3.4-6.28-2.58-6.11-4.15-9.83-4.54-5.52-.57-10.56,2.43-14.74,4.91-5.11,3.04-5.59,4.69-8.69,5.29-4.47.87-8.73-1.52-11.72-3.78-.7-.59-4.32-3.53-9.45-3.02-6.8.67-9.99,6.76-10.2,7.18-4.16,4.65-8.09,6.43-10.96,7.18-6.2,1.62-9.98-.31-16.25,1.89-4.12,1.44-6.98,3.92-8.69,5.67.13,2.09.19,7.79-3.4,13.61-4.22,6.83-10.64,9.22-12.47,9.83-.19,3.12-1.05,10.25-6.05,17.39-4.21,6.01-9.35,9.16-12.09,10.58-.78,2.22-1.78,5.6-2.27,9.83-.59,5.05.19,5.77-.38,9.45-.24,1.51-1.36,8.77-6.8,13.98-3.33,3.19-5.96,3.4-8.69,7.56-1.25,1.9-1.91,3.69-2.27,4.91-.09,1.73-.06,4.43.76,7.56.9,3.46,1.95,4.38,2.65,7.56.84,3.83.3,7.01,0,8.69-1.19,6.66-4.08,6.56-4.16,10.58-.11,5.26,4.81,6.07,7.56,14.74.72,2.27.98,4.41,1.51,8.69.86,6.97.33,8.89.76,12.47,1.09,9.14,6.05,9.27,9.07,19.28,3.1,10.27-.16,16.62,2.65,17.76Z"/>
  </g>
  <g id="vague">
    <path class="cls-13" d="M106.75,317.27c-.8,3.42.58,6.45,3.4,11.72,4.58,8.56,6.87,12.84,11.72,19.65,4.19,5.89,6.43,8.7,8.24,10.82,4.47,5.25,10.47,11.25,19.73,18.66,0,0,5.54,5.34,17.01,10.96,3.45,1.69,6.55,2.9,9.07,1.51,2.53-1.39,3.2-4.67,3.4-6.05,38.13,28.87,59.55,40.97,64.25,36.28,1.32-1.32,1.32-3.96,0-7.94,9.34,8.64,18.31,11.66,21.92,8.69.69-.56,2.37-2.32,1.89-7.56,10.37,5.57,19.23,9.66,25.7,12.47,18.58,8.08,22.95,8,24.94,6.05,2.25-2.21,1.42-6.76.38-10.2,7.23,3.3,13.48,6.09,18.52,8.31,2.94,1.3,6.74,2.95,7.56,1.89,1.12-1.45-4.38-6.76-3.4-7.94.5-.6,2.61-.05,7.94,3.02,2,1.16,18.21,10.15,33.64,12.85,14.24,2.49,16.91.7,17.76-.38,0,0,1.14-1.44,1.13-3.4-.01-8.44-28.68-15.85-38.17-18.14,3.32.2,8.3.49,14.36.76,20.21.89,23.77.32,24.19-1.13.48-1.67-3.53-3.29-11.34-11.34-1.83-1.88-3.25-3.49-4.16-4.54,2.07-.06,5.28,0,9.07.76,5.4,1.07,6.32,2.41,12.85,4.54,2.56.83,8.83,2.71,16.63,2.65,4.62-.04,6.77-.73,8.31-2.27,2.24-2.22,2.27-5.28,2.27-5.67-.02-3.79-2.85-6.44-4.91-8.31-6.56-5.96-14.98-7.49-19.65-7.94-33.6-19.29-78.08-52.04-110.74-104.69-16.81-27.1-37.85-62.14-27.59-100.54,3.41-12.78,9.36-22.45,13.98-28.72-.97-.79-2.5-1.8-4.54-2.27-3.5-.8-5.35.74-8.69,0-2.26-.5-3.72-1.71-5.29-3.02-4.59-3.82-4.09-7.2-7.56-8.69-.96-.41-2.8-.28-6.43,0-8.75.68-8.48,1.72-10.96,1.13-4.87-1.15-6.17-4.98-10.58-4.54-1.27.13-2.16.55-3.4,1.13-4.48,2.11-4.7,4.72-7.56,6.43-4.85,2.89-12.27.2-15.87-1.89-2.92-1.69-3.16-2.89-6.05-3.78-.79-.24-5.85-1.89-9.45.76-2.47,1.82-1.87,4.35-4.54,5.67-3.3,1.63-7.22.35-9.45-.38-6.03-1.97-6.71-4.89-9.45-4.54-3.77.48-3.34,6.13-8.69,11.34-7.26,7.07-17.74,6.13-18.52,6.05-4.52-.47-7.92-2.23-9.83-3.4-1.75,5.61-4.25,9.63-6.05,12.09-2.51,3.44-3.83,5.25-6.43,6.8-2.97,1.78-5.02,1.68-7.56,4.16-1.77,1.73-2.59,3.55-3.02,4.54-1.9,4.32-.88,7.06-1.13,11.72-.35,6.42-3.01,14.02-7.56,18.52-3.26,3.22-5.29,4.91-5.29,4.91-2.98,2.48-3.79,2.71-4.54,4.16-1.25,2.42-.67,5.05,0,7.94,1.12,4.83,2.46,4.66,3.02,7.94.51,2.96-.49,3.63-2.27,12.09-1.03,4.88-1.53,7.36-1.13,9.07.53,2.3,1.39,2.64,5.29,9.07,1.95,3.22,2.92,4.82,3.4,6.05,1.84,4.7,1.65,9.12,1.51,11.72-.27,5.09-1.36,5.33-.76,8.31.41,2.02.95,2.1,3.78,7.94,2.32,4.78,1.84,4.47,3.02,6.43,2.13,3.5,3.46,4.12,3.78,6.43.31,2.2-.66,3.29-1.13,5.29Z"/>
  </g>
  <g id="Calque_5" data-name="Calque 5">
    <path class="cls-5" d="M131.88,217.49c1.6-.44,5.75,12.41,7.75,11.91,1.23-.31.9-5.51.76-7.75-.46-7.13-.98-17.46-1.13-31.18,2.39,15.03,4.66,22.52,6.8,22.49,1.78-.03,3.48-5.26,5.1-15.69,1.53-6.7,3.61-14.32,5.29-14.17,1.64.15,2.01,7.64,2.83,16.25,1.27,13.34,2.81,29.43,7.94,46.11,4.23,13.76,9.63,23.82,13.8,31.56,5.14,9.56,10.25,17.3,14.36,23.06-8.86-8.68-19.8-21.29-29.29-38.36-6.21-11.17-10.38-21.68-13.23-30.61-1.17-1.58-2.05-2.27-2.65-2.08-.91.29-1.16,2.62-.76,6.99.29,6.52.93,13.61,2.08,21.17,1.92,12.6,4.83,23.69,7.94,33.07-2.73-3.46-6.17-8.21-9.64-14.17-4.13-7.1-6.42-12.72-9.07-19.28-5.56-13.75-7.34-22.18-7.75-24.19-1.38-6.76-2.36-14.78-1.13-15.12Z"/>
    <path class="cls-30" d="M195.85,218.1c1.92-.56-.37-9.03.85-26.65.09-1.25.97-12.92,5.53-27.07,2.43-7.53,3.3-7.69,3.54-7.65,1.41.22.87,9.67.71,15.87,0,0-.69,26.99,5.39,51.87,2.08,8.54,6.05,20.9,14.31,35.15-.24-.15-1.49-.89-2.65-.4-1.24.52-1.65,2.13-1.75,2.53-.28,1.08-.03,1.74-.43,1.98-.51.31-1.5-.43-1.75-.61-5.29-3.98-11.39-18.21-11.39-18.21-.69-1.61-1.94-4.52-3.59-8.24-.71-.25-1.69-.47-2.41,0-1.72,1.12-.78,5.38-.28,7.51,2.32,9.94,7.55,27.13,8.79,31.18-7.51-8.58-16.18-20.81-21.97-36.57-4.6-12.52-5.48-22.13-5.67-24.38-.61-7.36-.16-13.6.43-18.14,7.91,18.68,11,22.21,12.33,21.83Z"/>
    <path class="cls-2" d="M120.17,286.09c8.4,11.05,9.07,12.09,9.07,12.09,3.19,4.95,4.74,7.14,6.61,6.99.82-.06,1.79-.58,2.83-1.13,2.12-1.12,2.43-1.92,3.4-2.08.83-.14,2.33.15,4.72,3.4,4.98,6.75,5.07,14.39,6.61,14.36.59-.01.56-1.14,2.08-2.46.32-.27,2.78-2.36,4.72-1.51,1.73.75,2,3.36,2.08,4.16.3,2.9-1,5.2-1.13,5.48-1.38,2.99,18.6,17.6,91.46,59.53,4.22-13.04,8.44-26.08,12.66-39.12-21.63-33.97-36.65-56.3-44.79-65.95-2.92-3.47-5.98-9.43-12.09-21.35,0,0-3.02-5.14-2.08-9.83.27-1.33,1.09-2.15,1.09-2.15.28-.28.71-.71,1.18-.73,1.03-.05,1.83,1.87,2.83,4.02.67,1.43,2.05,3.88,4.82,8.76,0,0,.49.87,2.69,3.54.8.97,1.16,1.35,1.56,1.3,1.02-.13,1.42-3.02,1.51-3.78.59-.39,1.55-.88,2.65-.76,1.77.2,2.88,1.88,3.4,2.65,1.97,2.87,4.79,5.1,6.8,7.94,3.85,5.43,12.1,6.67,21.73,8.13,13.5,2.04,16.25-.98,22.11,2.08,4.82,2.51,8.98,7.68,11.53,17.2,1.25.25,5.41,1.24,8.69,5.1,3.07,3.62,3.5,7.56,3.59,8.88,1-1.09,2.77-2.66,5.29-3.21,4.49-.99,8.35,1.88,11.15,3.97,6.36,4.74,9.36,11.14,10.77,15.12,1.58,3.05,3.89,7.67,6.43,13.42,7.02,15.94,5.58,17.46,8.88,20.79,4.24,4.27,14.73,4.99,35.72,6.43,6.68.46,12.84.67,20.22,4.16,4.61,2.18,8,4.83,10.2,6.8.68.95,1.64,2.65,1.32,4.54-.16.96-.75,2.52-5.67,5.67-2.74,1.75-4.69,3-7.94,4.16-6.13,2.19-11.35,2.1-19.09,1.89-2.56-.07-6.05-.25-10.2-.76-2.72.25-4.51,1-5.48,1.51-.67.35-1.2.71-1.51,1.32-.46.9-.13,1.69,0,2.83.18,1.66-.1,3.9-1.13,5.1-1.05,1.22-2.83,1.31-4.35,1.32-2.75.03-7.26-.15-13.42-1.32-.34.08-1.54.4-2.27,1.51-.84,1.29-.7,3.12.38,4.54.09.62.1,1.5-.38,2.27-1.07,1.74-3.88,1.73-5.86,1.7-3.45-.06-6.05-.94-7.18-1.32-11.43-3.87-15.62-4.95-17.01-5.29-2.9-.72-5.26-1.12-6.61-1.32,2.84,2.34,5.96,5.28,5.29,6.61-.52,1.03-3.08.71-4.16.57-20.23-2.69-27.4-4.91-27.4-4.91-7.36-2.35-14.15-4.54-23.62-8.5-7.24-3.03-12.38-5.57-15.69-7.18-25.4-12.42-27.45-12.28-39.87-18.71-12.34-6.39-26.5-13.72-42.14-27.02-9.22-7.84-19.89-17.08-28.91-32.69-6.41-11.08-9.62-21.3-11.34-28.35.06-.61.26-1.88.94-2.08.78-.23,1.78,1.06,2.27,1.7Z"/>
  </g>
  <g id="Calque_7" data-name="Calque 7">
    <path class="cls-14" d="M156.57,324.33c-.62.6-1.85,1.97-2.39,4.11-.83,3.27.55,5.93.91,6.56,19.08,14.77,46.92,33.04,83.5,47.3,30.33,11.81,57.8,17.41,79.2,20.14,34.85-9.13,69.7-18.25,104.55-27.38.5-.24,4.32-2.12,5.2-6.34.47-2.25-.12-4.12-.45-4.98-17.1,4.71-34.91,9.27-53.41,13.58-19.52,4.55-38.47,8.52-56.8,11.99-9.67-.96-22.41-2.71-37.11-6.11-23.03-5.33-39.69-12.13-49.78-16.29-14.1-5.82-35.29-15.43-59.06-30.55-5.83-3.71-10.59-6.96-13.89-9.28-.16-.92-.31-1.83-.47-2.75Z"/>
    <path class="cls-6" d="M248.55,301.28c19.34,10.87,42.38,22.06,69.02,31.91,39.36,14.54,75.29,21.96,104.55,25.8.8.33,2.19,1.04,3.39,2.49.68.82,1.1,1.64,1.36,2.26-19.55,5.38-39.69,10.6-60.42,15.61-16.42,3.97-32.57,7.66-48.43,11.09-12.73-.9-23.27-2.57-31-4.07-24-4.66-42.1-11.74-54.31-16.52-17.25-6.75-29.16-12.86-37.11-16.97-13.68-7.07-20.97-11.81-27.61-16.97-6.74-5.24-12.59-7.64-11.99-10.41.37-1.74,2.9-2.57,4.07-2.94,18.46-5.84,42.28-11.39,54.76-15.16,5.65-1.71,12.78-4.2,23.53-5.43,4.3-.49,7.85-.64,10.18-.68Z"/>
    <path class="cls-11" d="M161.2,326.17c-.11-.54-.26-1.65.2-2.88.85-2.3,3.08-3.11,3.42-3.23,39.85-11.36,69.01-19.21,73.32-20.14,1.32-.28,3.61-.6,6.34,0,1.99.43,3.51,1.2,4.53,1.81,20.88,11.61,46.53,23.87,76.71,34.4,33.8,11.79,64.64,18.4,90.29,22.18,2.07-.01,3.43,1.2,3.39,2.04-.03.82-1.41,1.89-3.39,1.81-17.63,4.97-35.51,9.88-53.63,14.71-14.91,3.97-29.69,7.82-44.35,11.54-27.05-3.57-63.27-11.54-102.51-30.1-21.51-10.18-39.58-21.48-54.31-32.13Z"/>
    <path class="cls-26" d="M172.74,324.82c24.21-6.64,48.43-13.28,72.64-19.91,19.41,11,42.84,22.49,70.15,32.59,34,12.56,65.11,19.66,90.97,23.76-13.73,3.09-27.46,6.19-41.19,9.28-5.6-2.64-10.7-2.27-12.45.23-.35.5-.83,1.47-.68,3.17-12.07,2.94-24.14,5.88-36.21,8.83-24.99-3.61-58.11-11.31-93.91-28.51-19.45-9.35-35.87-19.66-49.33-29.42Z"/>
  </g>
  <g id="Calque_8" data-name="Calque 8">
    <g id="logo">
      <path class="cls-8" d="M289.42,339.99c3.03,1.36,9.66,4.51,14.65,8.48,5.85,4.65,5.86,7.59,5.71,8.61l9.81,4.35c.48-1.07,2.16-5.8-8.68-13.67-7.14-5.18-16.22-9.19-20.48-10.97-.34,1.06-.67,2.12-1.01,3.18Z"/>
      <path class="cls-8" d="M346.27,373.3c-20.71-7.77-41.41-15.53-62.12-23.3-.23.2-.74.52-1.95.63-.89.08-1.84.01-2.51-.06,1,.88,2.01,1.76,3.01,2.64,21.19,6.7,42.38,13.39,63.57,20.09Z"/>
      <path class="cls-8" d="M254.34,363.93c5.45-5.17,10.9-10.35,16.35-15.52-.83-.31-2.28-.9-3.69-1.7-1.04-.59-1.68-1.08-2.06-1.41-2-.24-4-.48-6-.73-1.53,6.45-3.07,12.9-4.6,19.36Z"/>
      <path class="cls-8" d="M201.29,318.88c21.52,6.79,43.04,13.58,64.56,20.37.79.78,1.59,1.55,2.38,2.33-.84,0-1.87.04-2.81.23-.68.14-1.15.31-1.48.49-20.88-7.8-41.76-15.61-62.64-23.41Z"/>
      <path class="cls-8" d="M293.23,327.93c-5.57,5.18-11.14,10.37-16.7,15.55.81.3,2.17.83,3.55,1.57,1.15.62,1.87,1.13,2.28,1.47,1.64.17,3.29.34,4.93.51,1.98-6.37,3.96-12.73,5.94-19.1Z"/>
      <path class="cls-23" d="M293.11,327.88c-5.57,5.19-11.13,10.39-16.7,15.58-.76-.3-2.1-.79-3.76-1.19-2.3-.56-3.85-.63-4.48-.64-.75-.78-1.5-1.56-2.25-2.34,9.06-3.8,18.12-7.6,27.18-11.41Z"/>
      <path class="cls-23" d="M254.42,363.99c5.43-5.19,10.85-10.39,16.28-15.58.97.38,3.09,1.17,5.63,1.71,1.55.33,2.71.45,3.44.49.93.85,1.86,1.7,2.79,2.56-9.38,3.61-18.75,7.22-28.13,10.83Z"/>
      <path class="cls-23" d="M346.28,373.27c-20.7-7.77-41.39-15.55-62.09-23.32.2-.24.39-.66.1-1.32-.36-.82-1.31-1.61-1.9-2.05,1.62.16,3.24.32,4.86.49,19.67,8.74,39.35,17.47,59.02,26.21Z"/>
      <path class="cls-23" d="M201.77,319c20.7,7.77,41.39,15.55,62.09,23.32-.27.2-.68.62-.34,1.38.29.66,1,1.28,1.47,1.65-1.92-.27-3.85-.53-5.77-.8-19.14-8.52-38.29-17.03-57.43-25.55Z"/>
      <path class="cls-8" d="M276.24,335.03c-3.38-1.03-11.02-3.22-19.19-4.17-9.58-1.11-14.02.16-15.5.68-3.62-1.12-7.23-2.24-10.85-3.37,1.4-.72,7.83-3.68,24.43-1.29,10.94,1.57,20.95,4.7,25.49,6.21-1.46.64-2.92,1.28-4.38,1.93Z"/>
      <path class="cls-8" d="M257.4,351.81c-3.03-1.36-9.66-4.51-14.65-8.48-5.85-4.65-5.86-7.59-5.71-8.61-3.27-1.45-6.54-2.9-9.81-4.35-.48,1.07-2.16,5.8,8.68,13.67,7.14,5.18,16.22,9.19,20.48,10.97.34-1.06.67-2.12,1.01-3.18Z"/>
      <path class="cls-8" d="M271.91,357.34c3.38,1.03,11.02,3.22,19.19,4.17,9.58,1.11,14.02-.16,15.5-.68,3.62,1.12,7.23,2.24,10.85,3.37-1.4.72-7.83,3.68-24.43,1.29-10.94-1.57-20.95-4.7-25.49-6.21,1.46-.64,2.92-1.28,4.38-1.93Z"/>
    </g>
  </g>
  <g id="Personnage">
    <g id="jambe_droite">
      <path class="cls-25" d="M236.67,293.93c.11,1,.35,2.52.99,4.25,1.22,3.32,2.45,3.54,3.87,6.71.95,2.13,1.27,4.02,1.91,7.78.56,3.32.22,2.94.59,4.4.93,3.68,3.12,6.12,6.96,10.3.98,1.06,2.41,2.56,4.25,4.25.28.37,2.57,3.45,1.42,5.53-.47.85-1.35,1.24-2.79,1.65-3.96,1.13-6.48.81-11.28,1.13-3.27.21-4.9.32-6.45.81-4.66,1.46-6.25,2.08-6.27,2.09h0c-1.72.49-2.05,1.37-2.72,1.24-.47-.09-.84-.65-.94-1.07-.1-.45.12-.69-.06-.94-.27-.35-.86-.03-1.17-.39-.26-.3.05-.66-.23-1.04-.23-.32-.52-.16-.87-.49-.4-.37-.17-.69-.55-1.13-.42-.49-.87-.29-1.13-.74-.21-.37.05-.58-.16-1.04-.23-.5-.65-.46-.74-.84-.12-.45.32-1.01.78-1.3.66-.41,1.43-.26,1.62-.23,2.29.38,4.56-2.11,9.23-2.99,2.55-.48,3.44-.04,5.96-.97,2.39-.88,2.72-1.7,2.8-1.93.45-1.32-.73-3.22-2.98-4.72-3.69-4.58-7.37-9.17-11.06-13.75-4.8-5.94-9.61-11.87-14.41-17.81-.17-.22-1.17-1.56-.85-3.4.29-1.65,1.45-2.55,1.7-2.74,2.75-2.06,5.8-4.83,8.6-8.5.73-.96,1.39-1.91,1.98-2.83,6.06-2.72,12.22-2.93,15.21.09,2.2,2.23,2.53,6.05,2.93,10.68.23,2.69.14,4.97,0,6.61-.86.38-1.97.78-3.31,1.04-1.07.21-2.03.28-2.83.28Z"/>
      <path class="cls-19" d="M242.43,293.46c-.44.23-1.19.3-2.08.38-1.02.09-1.87.05-2.47,0-.26-1.31-2.39-11.37-9.72-13.69-.83-.26-1.8-.45-2.93-.47-1.31,1.4-2.79,2.86-4.44,4.35-1.53,1.37-3.02,2.6-4.44,3.69-.14.68-.56,3.07.85,5.2.42.62.9,1.09,1.32,1.42,2.6,2.59,5.38,5.69,8.13,9.35,1.73,2.32,3.23,4.57,4.54,6.71,2.26,2.66,4.53,5.4,6.8,8.22,1.61,2,3.19,3.98,4.72,5.95,1.22,2.11.95,4.2-.09,4.91-.15.1-.75.47-1.89.19.31-.33.82-.99.76-1.8-.04-.49-.32-.89-.87-1.67-.39-.55-.76-.98-1.02-1.26-.24-.21-.61-.53-1.06-.93-7.69-6.9-11.21-12.86-17.18-20.99-1.96-2.67-4.91-6.55-8.76-11.15-.14-.48-.51-1.93.11-3.56.84-2.21,2.84-3.05,3.18-3.18,2.23-1.78,4.78-4.21,7.13-7.46.84-1.17,1.57-2.31,2.19-3.4,2.26.59,16.15,4.38,17.98,12.31.34,1.46.94,6-.76,6.9Z"/>
    </g>
    <g id="jambe_gauche">
      <path class="cls-18" d="M288.92,294.97c-.08.84-.09,1.99.19,3.31.17.82.42,1.51.66,2.08.7,1.21,1.7,2.68,3.12,4.16,1.02,1.07,2.03,1.9,2.93,2.55,1.06,1.23,2.31,2.92,3.4,5.1.88,1.75,1.43,3.37,1.8,4.72.71,3.43,2.05,8.64,4.72,14.65,1.36,3.06,1.55,2.91,4.25,8.31,3.23,6.47,4.89,11.79,8.22,15.87,1.67,2.04,4.48,4.64,9.35,6.61-1.69-1.24-3.67-2.91-5.67-5.1-2.04-2.23-3.54-4.41-4.63-6.24-.06-.94-.13-1.89-.19-2.83-.14-.44-.41-1.11-.94-1.8-.46-.59-.96-.99-1.32-1.23-.85-2.11-1.7-4.22-2.55-6.33-.39-.66-.94-1.67-1.51-2.93-.45-.99-.77-1.85-1.03-2.66-.85-2.66-1.1-4.79-1.71-7.64-.34-1.61-1.16-5.4-2.83-9.26-.16-.37-.05-.1-1.61-3.5-.83-1.81-1.17-2.56-1.8-3.59-.34-.56-.72-1.12-1.51-2.17-1.71-2.26-2.65-3.51-4.06-4.91-1.09-1.08-2.7-2.49-4.91-3.87-.79-1.1-1.57-2.2-2.36-3.31Z"/>
      <path class="cls-20" d="M266.57,295.91c1.04-1.15,4.73-4.98,10.91-5.95,5.39-.85,9.57.97,11.06,1.7.01.9.16,4.03,2.55,6.38.77.76,1.59,1.24,2.27,1.56,1.9,1.64,4.74,4.38,7.37,8.36,4.26,6.44,6.04,13.22,7.23,17.86,1.23,4.8,1.4,7.01,3.26,11.76,1.26,3.23,2.59,5.78,3.54,7.46.47.34,1.79,1.38,2.31,3.26.28,1.02.23,1.9.14,2.46,1.31,2.21,3.17,4.86,5.76,7.51,1.56,1.6,3.11,2.91,4.54,3.97.52,1.62.15,2.96-.57,3.26-.12.05-.49.18-1.13-.14.06.45-.1.89-.43,1.13-.46.35-1.22.26-1.7-.28-.01.11-.14,1.07-.99,1.56-.74.42-1.71.31-2.41-.28-.1.25-.38.84-.99,1.13-.89.43-2.15.06-2.98-.99-.39.98-1.28,1.65-2.27,1.7-1.22.07-2.38-.82-2.69-2.13-.3-1.29-.56-2.77-.71-4.39-.1-1.06-.14-2.05-.14-2.98-.2-.58-.58-1.52-1.28-2.55-1.12-1.66-1.98-1.94-2.36-3.26-.28-1,.06-1.33.05-2.83-.02-1.52-.39-2.81-.8-3.83-3.61-4.75-7.84-9.77-12.76-14.88-2.93-3.04-5.83-5.82-8.65-8.36-5.09-4.59-5.85-7.84-6.38-9.07-1.57-3.7-.7-4.2-2.27-6.52-2.22-3.29-4.15-3.06-6.94-6.94-1.53-2.12-2.21-4.25-2.55-5.67Z"/>
      <path class="cls-9" d="M272.53,297.61c1.09-.97,3.38-2.76,6.8-3.54,4.7-1.08,8.49.42,9.78.99-.23-.82-.55-2.12-.71-3.76-.15-1.56-.01-2.01-.14-2.34-.49-1.25-5.09-1.45-22.39,2.83.05,1.29.25,2.99.85,4.89.89,2.78,2.26,4.79,3.26,6.02,1.13,1.08,2.26,2.17,3.4,3.26.92.88,1.84,1.75,2.76,2.62.4,2.16,1.24,5.39,3.19,8.86,1.34,2.39,2.54,4.1,4.39,5.95l7.94,7.94c1.29,1.29,3.61,3.53,6.24,6.24.52.54,3.01,3.1,4.46,5.03.11.15.57.75,1.2,1.56.86,1.08,1.33,1.62,1.56,1.91.62.79,1.32,2.11,1.56,4.39-.2.65-.43,1.76-.07,2.98.15.49.35.87.85,1.63.53.81,1.32,1.92,2.41,3.19-.18-3.1-.72-6.89-2.06-11.06-.6-1.88-1.28-3.58-1.98-5.1-1.84-2.33-3.91-4.75-6.24-7.23-1.73-1.84-3.44-3.54-5.1-5.1-3.7-3.33-6.39-6.44-8.22-8.79-1.93-2.48-3.11-4.36-3.4-4.82-1.88-3.02-3.14-5.74-3.97-7.8.49-.18,2.08-.82,3.12-2.55.82-1.37.87-2.7.85-3.26-.21.29-1.04,1.35-2.55,1.7-1.87.43-3.31-.55-3.54-.71-.71-.58-1.58-1.42-2.41-2.55-.93-1.27-1.5-2.48-1.84-3.4Z"/>
    </g>
    <g id="short">
      <path class="cls-27" d="M292.29,294.82c-.39.3-1,.69-1.84.95-.59.18-1.12.24-1.52.26-.53-2.01-1.05-4.02-1.58-6.02,1.64,1.61,3.29,3.21,4.93,4.82Z"/>
      <path class="cls-27" d="M263.81,300.12c.75.19,1.67.36,2.72.43.95.06,1.79.02,2.5-.06-.66-1.89-1.32-3.79-1.98-5.68l-3.24,5.31Z"/>
      <path class="cls-27" d="M222.16,276.61c.19.63.38,1.27.57,1.9,1.66-1.66,2.39-2.61,2.2-2.88-.18-.23-1.1.09-2.77.98Z"/>
      <path class="cls-27" d="M236.13,293.93c.7-.11,1.71-.25,2.93-.36,1.64-.15,1.99-.1,2.31.08,1.18.69,1.05,2.87,1.01,3.41-.82.14-1.98.3-3.4.37-2.22.11-2.62-.14-2.85-.37-.88-.91-.1-2.88,0-3.12Z"/>
      <path class="cls-21" d="M222.1,276.68c1.46-.31,3.87-.6,6.47.28,3.9,1.31,5.94,4.45,8.59,8.66,1.55,2.46,3.63,6.3,5.14,11.47,5.86-4.76,11.73-9.52,17.59-14.29.71-.53,2.37-1.67,3.17-1.13.53.37.45,1.34.42,1.69-.17,2.31-.05,8.16.28,16.89.47-.69,7.05-10.06,17.73-9.57,5.23.24,9.01,2.73,10.7,4.01.43-7.27.45-15.06-.14-23.29-.12-1.67-.26-3.31-.42-4.93-.34-1.21-.78-2.48-1.34-3.8-2.14-5.03-5.2-8.65-7.71-11.05-3.14,1.98-8.21,4.63-14.96,5.98-8.71,1.74-15.92.45-19.85-.56-.09.77-.19,1.55-.28,2.32-4.48,1.99-9.79,4.8-15.34,8.8-3.99,2.88-7.33,5.81-10.06,8.52Z"/>
      <path class="cls-33" d="M282.69,251.79c1.95,1.86,4.41,4.64,6.5,8.48,1.32,2.43,2.19,4.71,2.76,6.64.2,3.79.3,6.83.35,8.92.05,2.06.06,2.99.14,5.56.12,3.76.21,4.25.21,5.88,0,3.2-.19,5.82-.35,7.58-.46-.44-1.07-.94-1.84-1.42-.67-.41-1.3-.71-1.84-.92-.14-8.27-.28-16.54-.43-24.8-2.56-5.15-5.12-10.3-7.68-15.45.72-.16,1.45-.31,2.17-.47Z"/>
      <path class="cls-3" d="M222.14,276.64c1.11-.27,2.98-.56,5.17-.07,1.01.22,1.85.56,2.52.89,3.74-3.29,7.92-6.67,12.58-10.03,2.55-1.84,5.06-3.54,7.51-5.1,2.84.46,6.45.83,10.63.78,3.53-.05,7.11-.09,11.55-1.35,2.48-.7,6.01-2,9.85-4.54.31,1.67,1.06,4.46,3.12,7.23,1.08,1.45,2.22,2.51,3.19,3.26-1.02-2.82-2.35-5.96-4.11-9.28-1.33-2.51-2.7-4.75-4.04-6.73-10.72,1.13-21.45,2.27-32.17,3.4-.09,1.32-.19,2.65-.28,3.97-4.7,2.16-10.19,5.17-15.91,9.39-3.74,2.76-6.93,5.56-9.6,8.19Z"/>
    </g>
    <g id="bras_gauche">
      <path class="cls-20" d="M292.8,222.12c.72,1.19,2.46,1.71,5.95,2.74,2.77.82,5.12,1.21,6.71,1.42,1.44,2.83,3.11,4.49,4.35,5.48,1.83,1.46,3.09,1.76,5.57,3.4,2.29,1.51,3.92,3.04,4.91,4.06.91.96,1.46,1.84,1.8,2.46.62,1.15.72,1.84,1.42,3.4.47,1.04.93,1.86,1.23,2.36.04.02.98.37,1.7-.19.63-.49.82-1.46.38-2.27,1.6-.55,3.83-1.12,6.54-1.26,2.29-.11,4.25.12,5.74.41.65.37,1.55.99,2.36,1.98.41.5.72.99.94,1.42.2.07.86.28,1.61,0,.42-.16.7-.41.85-.57.68.81,1.69.81,2.08.38.28-.31.27-.89,0-1.42-2.15-2.13-5.92-5.28-11.43-7.28-2.85-1.03-5.45-1.5-7.56-1.7-1.74-3.38-6.08-11.12-13.23-17.29-2.14-1.85-4.17-3.19-8.22-5.86-5.02-3.31-6-3.49-6.9-3.4-4.65.47-8.84,8.34-6.8,11.72Z"/>
      <path class="cls-1" d="M299.5,210.21c.73.09,1.55.38,1.55.38.82.29,1.45.66,1.88.96-1.09.47-4.18,1.99-5.98,5.47-.85,1.64-1.13,3.18-1.23,4.25.87.84,2.53,2.23,5.01,3.12,2.58.93,4.83.87,6.05.76,1.6,3.49,3.58,5.31,5.1,6.33,2.35,1.57,4.03,1.53,6.71,3.78.81.68,2.13,1.93,3.31,3.78,1.9,2.99,2.4,5.98,2.54,7.84-.34-.76-.85-1.85-1.56-3.12-1.31-2.36-2.56-4.61-4.68-6.56-.29-.27-1.86-1.27-5-3.27-3.14-2.01-4.09-2.56-5.2-3.78-1.33-1.46-2.06-2.95-2.46-3.93-2.81-.27-6.19-.9-9.83-2.3-1.15-.44-2.23-.92-3.21-1.42-.28-1.08-.99-4.39.76-7.65,1.47-2.74,4.42-4.86,6.24-4.63Z"/>
      <path class="cls-28" d="M326.39,241.17c.24.3.61.85.8,1.64.23.92.09,1.69,0,2.08,1.15-.37,2.51-.72,4.04-.93,3.09-.43,5.75-.18,7.68.17-1.96-1.05-4.82-2.26-8.41-2.75-1.51-.21-2.89-.25-4.11-.21Z"/>
    </g>
    <g id="bras_droit">
      <path class="cls-20" d="M211.77,213.05c.65.33,1.57.87,2.5,1.75.63.59,1.7,1.74,3.33,5.5.62,1.43,1.37,3.37,2.06,5.74-2.37,1.05-4.8,2.09-7.3,3.12-2.23.92-4.43,1.79-6.59,2.62-.66,2.49-1.72,4.04-2.48,4.96-2.62,3.14-5.51,3.18-8.72,6.52-1.44,1.5-2.3,2.99-2.76,3.9-.13,1.46-.23,3-.28,4.61-.08,2.42-.04,4.69.07,6.8-.19.08-.68.25-1.2.07-.72-.24-1.23-1.04-1.2-1.98-.01-.34-.19-3.6-2.41-4.68-.61-.3-1.53-.5-3.33,0-3.95,1.11-6.66,4.12-8.08,6.02-.08.05-.51.34-1.06.21-.73-.16-.98-.88-.99-.92-.93.91-2.13,1.25-3.05.85-.21-.09-.54-.28-.85-.71-.31-.03-1.5-.15-1.7-.78-.13-.41.21-.88.5-1.2,4.24-4.86,13.25-8.29,13.25-8.29.82-.31,2.13-.8,3.76-1.35,4.52-11.43,9.09-16.83,12.54-19.63.54-.44,1.7-1.35,3.36-2.71,1.02-.83,3.04-2.5,4.29-3.59,1.61-1.42,3.86-3.61,6.35-6.83Z"/>
      <path class="cls-1" d="M189.69,236.31c2.34-2.7,4.68-5.41,7.02-8.11,1.67-1.26,2.99-2.34,3.86-3.08,3.14-2.66,4.21-3.96,6.77-5.81,1.58-1.14,2.95-1.93,3.83-2.41,1.31.89,2.85,2.09,4.39,3.69,1.9,1.95,3.23,3.89,4.15,5.46-.69-3.23-1.79-5.65-2.63-7.23-1.56-2.91-2.97-4.19-3.54-4.68-.66-.56-1.26-.96-1.7-1.23-2.23,2.98-4.33,5.11-5.91,6.54-2.61,2.38-5.63,4.71-5.63,4.71-1.13.92-2.1,1.69-2.83,2.27-1.1.93-2.31,2.08-3.51,3.47-1.98,2.3-3.33,4.56-4.25,6.41Z"/>
      <path class="cls-1" d="M170.13,256.3c.44-.55.98-1.16,1.63-1.77.67-.63,1.33-1.15,1.91-1.56"/>
      <path class="cls-1" d="M173.74,256.44c.66-.82,1.41-1.68,2.27-2.55.5-.51,1-.98,1.49-1.42"/>
    </g>
    <path id="ventre" class="cls-4" d="M247.58,252.26c.09.93.16,1.9.21,2.91.04.73.06,1.44.07,2.13,3.89.92,10.69,2.01,18.92.5,7.27-1.33,12.7-4.15,15.94-6.17-.15-.46-.29-.93-.43-1.42-.23-.81-.41-1.59-.57-2.34-4.7,1.92-11.39,4.05-19.63,4.75-5.63.48-10.56.18-14.53-.35Z"/>
    <g id="Shirt">
      <path class="cls-10" d="M210.17,214.98c-.29-.08-.4-.97-.14-1.7.23-.64.7-1.02.85-1.13,8.58-6.6,15.02-8.65,15.02-8.65,3.99-1.26,9.66-2.66,16.69-3.15.29.38.71.92,1.24,1.52.87.99,1.96,2.22,3.61,3.33.57.38,1.52,1.01,2.91,1.49,1.54.53,3.07,1.07,4.54.53,1.83-.67,2.61-2.68,3.47-4.89.76-1.97,1.01-3.71,1.1-4.85,6.01-.48,15.88-.44,26.96,3.61,6.12,2.24,10.99,5.11,14.6,7.65.04.01.79.23.99.99.19.69-.24,1.23-.28,1.28-.73.16-1.81.47-2.98,1.13-.99.56-3.18,2.02-4.39,4.82-.55,1.26-1.62,3.73-.57,5.53.44.76,1.13,1.17.99,1.7-.16.64-1.35.88-2.27.99-1.96-1.68-4.88-3.75-8.79-5.24-1.79-.69-3.47-1.13-4.96-1.42-.03,4.59.38,10.44,1.98,17.01,1.07,4.38,2.45,8.18,3.83,11.34-12.51,5.78-19.92,6.6-24.24,6.38-1.03-.05-6.9-.43-12.9-.85-2.5-.17-4.57-.32-5.95-.43-.36-4.88-.84-9.09-1.28-12.47-1.01-7.76-1.83-10.97-3.97-14.17-1.04-1.56-2.1-2.69-2.83-3.4-1.21-.02-3.06.09-5.1.85-4.36,1.62-6.05,4.87-7.8,4.25-.98-.35-.94-1.55-1.84-4.11-1.86-5.29-5.46-9.96-7.09-9.5-.8.23-1.03,1.67-1.42,1.56Z"/>
      <path class="cls-7" d="M211.02,212.01c-.29.22-.66.58-.9,1.12-.07.15-.52,1.2-.07,1.72.06.07.09.11.16.12.41.09.72-1.25,1.36-1.52.51-.22,1.44.17,3.17,2.18,2.97-2.46,8.08-6.04,15.27-8.15,4.66-1.36,8.8-1.7,11.91-1.7.56.58,3.39,3.38,7.8,3.4,2.94.01,5.08-1.22,5.95-1.8-1.42.04-5.02-.05-8.61-2.39-2.41-1.57-3.81-3.5-4.54-4.68-4.35.1-11.09.81-18.6,3.93-5.68,2.37-9.97,5.35-12.9,7.76Z"/>
      <path class="cls-15" d="M233.24,221.86c.28.25.64.6,1.04,1.02,0,0,.87.91,1.58,1.87,1.83,2.45,2.81,6.05,2.81,6.05,1.12,4.12,1.31,7.45,1.75,12.05.21,2.17.54,5.32,1.06,9.17,2.04.13,4.08.27,6.12.4-2.08-10.41-4.39-18.06-6.12-23.1-1.24-3.62-3.06-8.28-5.81-8.43-.99-.06-1.84.49-2.43.99Z"/>
      <path class="cls-32" d="M259.49,197.34h11.06c3.26.36,6.95,1,10.91,2.13,8.91,2.53,15.77,6.51,20.48,9.85.12.37.29,1.11-.07,1.49-.48.51-1.64.1-2.27-.14-3.5-1.33-7.65-3.91-8.08-4.18-1.62-1-4.53-2.01-10.35-4.04-2.54-.89-4.55-1.58-6.31-2.06-3.45-.93-8.97-1.79-16.58-.5.4-.85.8-1.7,1.2-2.55Z"/>
      <path class="cls-16" d="M281.38,248.28c1.07-.46,2.13-.93,3.2-1.39-1.7-3.88-2.67-7.04-3.25-9.23-.79-3-1.43-5.42-1.81-8.51-.05-.43-.12-1.01-.18-1.01-.18,0-.35,5.24.2,10.51.38,3.66,1.07,6.89,1.83,9.63Z"/>
    </g>
    <g id="Visage">
      <path class="cls-31" d="M242.72,191.55c.05-.36.12-.97.19-1.72.44-4.83-.15-6.56.99-8.1.38-.51,1.11-1.21,2.62-1.63,2.08.21,4.28.39,6.57.5,1.96.09,3.85.14,5.67.14.26-.18,3.83-2.72,3.71-7.18-.08-3.13-1.95-5.98-4.82-7.37.22.3,1.92,2.62,1.13,5.48-.49,1.8-1.7,2.84-2.17,3.21.6-3.02-.53-6.02-2.83-7.56-2.2-1.47-4.62-1.06-5.2-.94,2.06,1.33,3.18,3.52,2.83,5.57-.23,1.39-1.07,2.32-1.51,2.74-.05-.43-.4-3.15-2.83-4.82-1.74-1.2-3.55-1.17-4.16-1.13.98.24,1.72.94,1.89,1.8.11.59-.08,1.09-.19,1.32-.73-.09-4.28-.47-7.56,1.98-.51.38-3.26,2.51-3.97,6.33-1.09,5.88,3.7,10.09,3.92,10.28.2-.31.91-1.28,1.94-1.32.91-.04,1.9.68,2.43,1.39.36.48.65,1.16,1.09,1.13.11,0,.2-.05.26-.09Z"/>
      <path class="cls-17" d="M242.53,191.5c.7-.19-1.48-5.84.94-9.64.74-1.16,1.71-1.83,2.27-2.17,1.81.16,3.64.32,5.48.47,2.54.21,5.06.4,7.56.57.68,4.04,1.12,8.86.85,14.27-.1,2.11-.3,4.1-.57,5.95-.31,1.33-.92,3.12-2.17,4.91-.4.58-.82,1.08-1.23,1.51-.88.23-2.29.45-3.87,0-.21-.06-.61-.19-1.61-.66-1.1-.53-2.38-1.14-3.78-2.17-1.01-.75-2.47-2.01-3.87-3.97-.06-1.57-.13-3.15-.19-4.72-.18.02-3.15.27-4.82-1.98-.92-1.25-.96-2.61-.94-3.12.08-.18.71-1.61,1.98-1.8.94-.14,1.74.47,2.36.94,1.14.87,1.34,1.68,1.61,1.61Z"/>
      <path class="cls-31" d="M247.16,188.41c-.11-.14,1.4-2.33,3.33-2.2,1.18.08,2.14,1,2.06,1.2-.09.21-1.21-.45-2.76-.21-1.65.25-2.54,1.31-2.62,1.2Z"/>
      <path class="cls-31" d="M259.4,185.34c-.33-.14-.72-.23-1.13-.23-1.94.03-3.25,2.34-3.14,2.47.09.09.89-1.04,2.51-1.42.66-.16,1.25-.14,1.72-.09,0-.24,0-.49.03-.73Z"/>
      <path class="cls-31" d="M249.71,188.48c.64-.09,1.11.45,1.2.57.38.46.37.98.35,1.84-.01.67-.14.89-.21.99-.3.41-.78.49-.85.5-.11.02-.47.07-.78-.14-.28-.19-.36-.47-.5-.99-.15-.57-.15-1-.14-1.42.01-.62.1-.78.14-.85.26-.42.75-.49.78-.5Z"/>
      <path class="cls-31" d="M258.17,187.78c.64-.09,1.11.45,1.2.57.38.46.37.98.35,1.84-.01.67-.14.89-.21.99-.3.41-.78.49-.85.5-.11.02-.47.07-.78-.14-.28-.19-.36-.47-.5-.99-.15-.57-.15-1-.14-1.42.01-.62.1-.78.14-.85.26-.42.75-.49.78-.5Z"/>
      <path class="cls-12" d="M255.17,192.87c.43.68.88,1.36,1.35,2.06.31.46.61.91.92,1.35-.16.19-.39.42-.71.64-.44.29-.85.43-1.13.5-.14-1.51-.28-3.02-.43-4.54Z"/>
      <path class="cls-24" d="M253.11,199.39h3.9c-.03.17-.25,1.21-1.2,1.7-.17.09-.61.31-1.13.21-.76-.14-1.39-.91-1.56-1.91Z"/>
    </g>
  </g>
</svg>